  0
SECTION
  2
HEADER
  9
$ACADVER
  1
AC1015
  9
$ACADMAINTVER
 70
     6
  9
$DWGCODEPAGE
  3
ANSI_1252
  9
$INSBASE
 10
0.0
 20
0.0
 30
0.0
  9
$EXTMIN
 10
4.0321098121
 20
-19.8063142388
 30
0.0
  9
$EXTMAX
 10
16.7903620148
 20
-3.8464567966
 30
0.0
  9
$LIMMIN
 10
0.0
 20
0.0
  9
$LIMMAX
 10
12.0
 20
9.0
  9
$ORTHOMODE
 70
     0
  9
$REGENMODE
 70
     1
  9
$FILLMODE
 70
     1
  9
$QTEXTMODE
 70
     0
  9
$MIRRTEXT
 70
     1
  9
$LTSCALE
 40
1.0
  9
$ATTMODE
 70
     1
  9
$TEXTSIZE
 40
0.125
  9
$TRACEWID
 40
0.05
  9
$TEXTSTYLE
  7
Standard
  9
$CLAYER
  8
0
  9
$CELTYPE
  6
ByLayer
  9
$CECOLOR
 62
   256
  9
$CELTSCALE
 40
1.0
  9
$DISPSILH
 70
     0
  9
$DIMSCALE
 40
1.0
  9
$DIMASZ
 40
0.13
  9
$DIMEXO
 40
0.05
  9
$DIMDLI
 40
0.38
  9
$DIMRND
 40
0.0
  9
$DIMDLE
 40
0.0
  9
$DIMEXE
 40
0.125
  9
$DIMTP
 40
0.0
  9
$DIMTM
 40
0.0
  9
$DIMTXT
 40
0.1111111111
  9
$DIMCEN
 40
0.09
  9
$DIMTSZ
 40
0.0
  9
$DIMTOL
 70
     0
  9
$DIMLIM
 70
     0
  9
$DIMTIH
 70
     1
  9
$DIMTOH
 70
     1
  9
$DIMSE1
 70
     0
  9
$DIMSE2
 70
     0
  9
$DIMTAD
 70
     0
  9
$DIMZIN
 70
     0
  9
$DIMBLK
  1

  9
$DIMASO
 70
     1
  9
$DIMSHO
 70
     1
  9
$DIMPOST
  1

  9
$DIMAPOST
  1

  9
$DIMALT
 70
     0
  9
$DIMALTD
 70
     2
  9
$DIMALTF
 40
25.4
  9
$DIMLFAC
 40
1.0
  9
$DIMTOFL
 70
     0
  9
$DIMTVP
 40
0.0
  9
$DIMTIX
 70
     0
  9
$DIMSOXD
 70
     0
  9
$DIMSAH
 70
     0
  9
$DIMBLK1
  1

  9
$DIMBLK2
  1

  9
$DIMSTYLE
  2
Standard
  9
$DIMCLRD
 70
     0
  9
$DIMCLRE
 70
     0
  9
$DIMCLRT
 70
     0
  9
$DIMTFAC
 40
1.0
  9
$DIMGAP
 40
0.06
  9
$DIMJUST
 70
     0
  9
$DIMSD1
 70
     0
  9
$DIMSD2
 70
     0
  9
$DIMTOLJ
 70
     1
  9
$DIMTZIN
 70
     0
  9
$DIMALTZ
 70
     0
  9
$DIMALTTZ
 70
     0
  9
$DIMUPT
 70
     0
  9
$DIMDEC
 70
     3
  9
$DIMTDEC
 70
     3
  9
$DIMALTU
 70
     2
  9
$DIMALTTD
 70
     2
  9
$DIMTXSTY
  7
Standard
  9
$DIMAUNIT
 70
     0
  9
$DIMADEC
 70
     2
  9
$DIMALTRND
 40
0.0
  9
$DIMAZIN
 70
     0
  9
$DIMDSEP
 70
    46
  9
$DIMATFIT
 70
     3
  9
$DIMFRAC
 70
     0
  9
$DIMLDRBLK
  1

  9
$DIMLUNIT
 70
     2
  9
$DIMLWD
 70
    -2
  9
$DIMLWE
 70
    -2
  9
$DIMTMOVE
 70
     0
  9
$LUNITS
 70
     2
  9
$LUPREC
 70
     3
  9
$SKETCHINC
 40
0.1
  9
$FILLETRAD
 40
0.5
  9
$AUNITS
 70
     0
  9
$AUPREC
 70
     2
  9
$MENU
  1
.
  9
$ELEVATION
 40
0.0
  9
$PELEVATION
 40
0.0
  9
$THICKNESS
 40
0.0
  9
$LIMCHECK
 70
     0
  9
$CHAMFERA
 40
0.5
  9
$CHAMFERB
 40
0.5
  9
$CHAMFERC
 40
1.0
  9
$CHAMFERD
 40
0.0
  9
$SKPOLY
 70
     0
  9
$TDCREATE
 40
2457194.818359387
  9
$TDUCREATE
 40
2457194.985026053
  9
$TDUPDATE
 40
2457194.818385498
  9
$TDUUPDATE
 40
2457194.985052164
  9
$TDINDWG
 40
0.0000000116
  9
$TDUSRTIMER
 40
0.0000000116
  9
$USRTIMER
 70
     1
  9
$ANGBASE
 50
0.0
  9
$ANGDIR
 70
     0
  9
$PDMODE
 70
     0
  9
$PDSIZE
 40
-1.0
  9
$PLINEWID
 40
0.0
  9
$SPLFRAME
 70
     0
  9
$SPLINETYPE
 70
     6
  9
$SPLINESEGS
 70
     8
  9
$HANDSEED
  5
FE
  9
$SURFTAB1
 70
     6
  9
$SURFTAB2
 70
     6
  9
$SURFTYPE
 70
     6
  9
$SURFU
 70
     6
  9
$SURFV
 70
     6
  9
$UCSBASE
  2

  9
$UCSNAME
  2

  9
$UCSORG
 10
0.0
 20
0.0
 30
0.0
  9
$UCSXDIR
 10
1.0
 20
0.0
 30
0.0
  9
$UCSYDIR
 10
0.0
 20
1.0
 30
0.0
  9
$UCSORTHOREF
  2

  9
$UCSORTHOVIEW
 70
     0
  9
$UCSORGTOP
 10
0.0
 20
0.0
 30
0.0
  9
$UCSORGBOTTOM
 10
0.0
 20
0.0
 30
0.0
  9
$UCSORGLEFT
 10
0.0
 20
0.0
 30
0.0
  9
$UCSORGRIGHT
 10
0.0
 20
0.0
 30
0.0
  9
$UCSORGFRONT
 10
0.0
 20
0.0
 30
0.0
  9
$UCSORGBACK
 10
0.0
 20
0.0
 30
0.0
  9
$PUCSBASE
  2

  9
$PUCSNAME
  2

  9
$PUCSORG
 10
0.0
 20
0.0
 30
0.0
  9
$PUCSXDIR
 10
1.0
 20
0.0
 30
0.0
  9
$PUCSYDIR
 10
0.0
 20
1.0
 30
0.0
  9
$PUCSORTHOREF
  2

  9
$PUCSORTHOVIEW
 70
     0
  9
$PUCSORGTOP
 10
0.0
 20
0.0
 30
0.0
  9
$PUCSORGBOTTOM
 10
0.0
 20
0.0
 30
0.0
  9
$PUCSORGLEFT
 10
0.0
 20
0.0
 30
0.0
  9
$PUCSORGRIGHT
 10
0.0
 20
0.0
 30
0.0
  9
$PUCSORGFRONT
 10
0.0
 20
0.0
 30
0.0
  9
$PUCSORGBACK
 10
0.0
 20
0.0
 30
0.0
  9
$USERI1
 70
     0
  9
$USERI2
 70
     0
  9
$USERI3
 70
     0
  9
$USERI4
 70
     0
  9
$USERI5
 70
     0
  9
$USERR1
 40
0.0
  9
$USERR2
 40
0.0
  9
$USERR3
 40
0.0
  9
$USERR4
 40
0.0
  9
$USERR5
 40
0.0
  9
$WORLDVIEW
 70
     1
  9
$SHADEDGE
 70
     3
  9
$SHADEDIF
 70
    70
  9
$TILEMODE
 70
     1
  9
$MAXACTVP
 70
    64
  9
$PINSBASE
 10
0.0
 20
0.0
 30
0.0
  9
$PLIMCHECK
 70
     0
  9
$PEXTMIN
 10
1.0000000000E+20
 20
1.0000000000E+20
 30
1.0000000000E+20
  9
$PEXTMAX
 10
-1.0000000000E+20
 20
-1.0000000000E+20
 30
-1.0000000000E+20
  9
$PLIMMIN
 10
0.0
 20
0.0
  9
$PLIMMAX
 10
12.0
 20
9.0
  9
$UNITMODE
 70
     0
  9
$VISRETAIN
 70
     1
  9
$PLINEGEN
 70
     0
  9
$PSLTSCALE
 70
     1
  9
$TREEDEPTH
 70
  3020
  9
$CMLSTYLE
  2
Standard
  9
$CMLJUST
 70
     0
  9
$CMLSCALE
 40
1.0
  9
$PROXYGRAPHICS
 70
     1
  9
$MEASUREMENT
 70
     0
  9
$CELWEIGHT
370
    -1
  9
$ENDCAPS
280
     0
  9
$JOINSTYLE
280
     0
  9
$LWDISPLAY
290
     1
  9
$INSUNITS
 70
     1
  9
$HYPERLINKBASE
  1

  9
$STYLESHEET
  1

  9
$XEDIT
290
     1
  9
$CEPSNTYPE
380
     0
  9
$PSTYLEMODE
290
     1
  9
$FINGERPRINTGUID
  2
{7BDF9B38-5605-406C-8567-40335B48CA30}
  9
$VERSIONGUID
  2
{FAEB1C32-E019-11D5-929B-00C0DF256EC4}
  9
$EXTNAMES
290
     1
  9
$PSVPSCALE
 40
0.0
  9
$OLESTARTUP
290
     0
  0
ENDSEC
  0
SECTION
  2
CLASSES
  0
CLASS
  1
ACDBDICTIONARYWDFLT
  2
AcDbDictionaryWithDefault
  3
ObjectDBX Classes
 90
        0
280
     0
281
     0
  0
CLASS
  1
VISUALSTYLE
  2
AcDbVisualStyle
  3
ObjectDBX Classes
 90
     4095
280
     0
281
     0
  0
CLASS
  1
MATERIAL
  2
AcDbMaterial
  3
ObjectDBX Classes
 90
     1153
280
     0
281
     0
  0
CLASS
  1
ACDBPLACEHOLDER
  2
AcDbPlaceHolder
  3
ObjectDBX Classes
 90
        0
280
     0
281
     0
  0
CLASS
  1
LAYOUT
  2
AcDbLayout
  3
ObjectDBX Classes
 90
        0
280
     0
281
     0
  0
ENDSEC
  0
SECTION
  2
TABLES
  0
TABLE
  2
VPORT
  5
8
330
0
100
AcDbSymbolTable
 70
     1
  0
VPORT
  5
29
330
8
100
AcDbSymbolTableRecord
100
AcDbViewportTableRecord
  2
*Active
 70
     0
 10
0.0
 20
0.0
 11
1.0
 21
1.0
 12
10.4112359135
 22
-11.8263855177
 13
0.0
 23
0.0
 14
0.5
 24
0.5
 15
0.5
 25
0.5
 16
0.0
 26
0.0
 36
1.0
 17
0.0
 27
0.0
 37
0.0
 40
16.2790545911
 41
0.7993963761
 42
50.0
 43
0.0
 44
0.0
 50
0.0
 51
0.0
 71
     0
 72
   100
 73
     1
 74
     3
 75
     0
 76
     0
 77
     0
 78
     0
281
     0
 65
     1
110
0.0
120
0.0
130
0.0
111
1.0
121
0.0
131
0.0
112
0.0
122
1.0
132
0.0
 79
     0
146
0.0
  0
ENDTAB
  0
TABLE
  2
LTYPE
  5
5
330
0
100
AcDbSymbolTable
 70
     6
  0
LTYPE
  5
14
330
5
100
AcDbSymbolTableRecord
100
AcDbLinetypeTableRecord
  2
ByBlock
 70
     0
  3

 72
    65
 73
     0
 40
0.0
  0
LTYPE
  5
15
330
5
100
AcDbSymbolTableRecord
100
AcDbLinetypeTableRecord
  2
ByLayer
 70
     0
  3

 72
    65
 73
     0
 40
0.0
  0
LTYPE
  5
16
330
5
100
AcDbSymbolTableRecord
100
AcDbLinetypeTableRecord
  2
Continuous
 70
     0
  3
Solid line
 72
    65
 73
     0
 40
0.0
  0
LTYPE
  5
3F
330
5
100
AcDbSymbolTableRecord
100
AcDbLinetypeTableRecord
  2
HIDDEN
 70
     0
  3
Hidden __ __ __ __ __ __ __ __ __ __ __ __ __ __
 72
    65
 73
     2
 40
0.075
 49
0.05
 74
     0
 49
-0.025
 74
     0
  0
LTYPE
  5
40
330
5
100
AcDbSymbolTableRecord
100
AcDbLinetypeTableRecord
  2
PHANTOM
 70
     0
  3
Phantom ______  __  __  ______  __  __  ______
 72
    65
 73
     6
 40
0.5
 49
0.25
 74
     0
 49
-0.05
 74
     0
 49
0.05
 74
     0
 49
-0.05
 74
     0
 49
0.05
 74
     0
 49
-0.05
 74
     0
  0
LTYPE
  5
41
330
5
100
AcDbSymbolTableRecord
100
AcDbLinetypeTableRecord
  2
CENTER
 70
     0
  3
Center ____ _ ____ _ ____ _ ____ _ ____ _ ____
 72
    65
 73
     4
 40
0.4
 49
0.25
 74
     0
 49
-0.05
 74
     0
 49
0.05
 74
     0
 49
-0.05
 74
     0
  0
LTYPE
  5
42
330
5
100
AcDbSymbolTableRecord
100
AcDbLinetypeTableRecord
  2
CENTERX2
 70
     0
  3
Center (2x) ________  __  ________  __  _____
 72
    65
 73
     4
 40
0.8
 49
0.5
 74
     0
 49
-0.1
 74
     0
 49
0.1
 74
     0
 49
-0.1
 74
     0
  0
LTYPE
  5
43
330
5
100
AcDbSymbolTableRecord
100
AcDbLinetypeTableRecord
  2
DOT2
 70
     0
  3
Dot (.5x) ........................................
 72
    65
 73
     2
 40
0.025
 49
0.0
 74
     0
 49
-0.025
 74
     0
  0
ENDTAB
  0
TABLE
  2
LAYER
  5
2
330
0
100
AcDbSymbolTable
 70
     1
  0
LAYER
  5
10
330
2
100
AcDbSymbolTableRecord
100
AcDbLayerTableRecord
  2
0
 70
     0
 62
     7
  6
Continuous
370
    -3
390
F
  0
ENDTAB
  0
TABLE
  2
STYLE
  5
3
330
0
100
AcDbSymbolTable
 70
     1
  0
STYLE
  5
11
330
3
100
AcDbSymbolTableRecord
100
AcDbTextStyleTableRecord
  2
Standard
 70
     0
 40
0.0
 41
1.0
 50
0.0
 71
     0
 42
0.125
  3
txt
  4

  0
ENDTAB
  0
TABLE
  2
VIEW
  5
6
330
0
100
AcDbSymbolTable
 70
     0
  0
ENDTAB
  0
TABLE
  2
UCS
  5
7
330
0
100
AcDbSymbolTable
 70
     0
  0
ENDTAB
  0
TABLE
  2
APPID
  5
9
330
0
100
AcDbSymbolTable
 70
     1
  0
APPID
  5
12
330
9
100
AcDbSymbolTableRecord
100
AcDbRegAppTableRecord
  2
ACAD
 70
     0
  0
ENDTAB
  0
TABLE
  2
DIMSTYLE
  5
A
330
0
100
AcDbSymbolTable
 70
     1
100
AcDbDimStyleTable
  0
DIMSTYLE
105
27
330
A
100
AcDbSymbolTableRecord
100
AcDbDimStyleTableRecord
  2
Standard
 70
     0
178
     0
340
11
  0
ENDTAB
  0
TABLE
  2
BLOCK_RECORD
  5
1
330
0
100
AcDbSymbolTable
 70
     1
  0
BLOCK_RECORD
  5
1F
330
1
100
AcDbSymbolTableRecord
100
AcDbBlockTableRecord
  2
*Model_Space
340
22
  0
BLOCK_RECORD
  5
1B
330
1
100
AcDbSymbolTableRecord
100
AcDbBlockTableRecord
  2
*Paper_Space
340
1E
  0
BLOCK_RECORD
  5
23
330
1
100
AcDbSymbolTableRecord
100
AcDbBlockTableRecord
  2
*Paper_Space0
340
26
  0
ENDTAB
  0
ENDSEC
  0
SECTION
  2
BLOCKS
  0
BLOCK
  5
20
330
1F
100
AcDbEntity
  8
0
100
AcDbBlockBegin
  2
*Model_Space
 70
     0
 10
0.0
 20
0.0
 30
0.0
  3
*Model_Space
  1

  0
ENDBLK
  5
21
330
1F
100
AcDbEntity
  8
0
100
AcDbBlockEnd
  0
BLOCK
  5
1C
330
1B
100
AcDbEntity
 67
     1
  8
0
100
AcDbBlockBegin
  2
*Paper_Space
 70
     0
 10
0.0
 20
0.0
 30
0.0
  3
*Paper_Space
  1

  0
ENDBLK
  5
1D
330
1B
100
AcDbEntity
 67
     1
  8
0
100
AcDbBlockEnd
  0
BLOCK
  5
24
330
23
100
AcDbEntity
  8
0
100
AcDbBlockBegin
  2
*Paper_Space0
 70
     0
 10
0.0
 20
0.0
 30
0.0
  3
*Paper_Space0
  1

  0
ENDBLK
  5
25
330
23
100
AcDbEntity
  8
0
100
AcDbBlockEnd
  0
ENDSEC
  0
SECTION
  2
ENTITIES
  0
SPLINE
  5
75
330
1F
100
AcDbEntity
  8
0
  6
Continuous
 62
     7
370
    15
100
AcDbSpline
210
0.0
220
0.0
230
1.0
 70
     8
 71
     3
 72
    11
 73
     7
 74
     0
 42
0.00000001
 43
0.00000001
 12
1.0
 22
0.0
 32
0.0
 13
1.0
 23
0.0
 33
0.0
 40
0.0
 40
0.0
 40
0.0
 40
0.0
 40
0.2874038447655096
 40
0.5481335636162995
 40
0.785848932996163
 40
0.9999999999999999
 40
0.9999999999999999
 40
0.9999999999999999
 40
0.9999999999999999
 10
8.218777678931541
 20
-16.90135858671431
 30
0.0
 10
8.237054049454647
 20
-16.93518788387464
 30
0.0
 10
8.271910549418918
 20
-16.99970676051754
 30
0.0
 10
8.32964396885217
 20
-17.087637010415
 30
0.0
 10
8.389012594650179
 20
-17.16257170570477
 30
0.0
 10
8.43322002390793
 20
-17.2038701470906
 30
0.0
 10
8.454171055856241
 20
-17.22344253524838
 30
0.0
  0
SPLINE
  5
76
330
1F
100
AcDbEntity
  8
0
  6
Continuous
 62
     7
370
    15
100
AcDbSpline
210
0.0
220
0.0
230
1.0
 70
     8
 71
     3
 72
     9
 73
     5
 74
     0
 42
0.00000001
 43
0.00000001
 12
1.0
 22
0.0
 32
0.0
 13
1.0
 23
0.0
 33
0.0
 40
0.0
 40
0.0
 40
0.0
 40
0.0
 40
0.4944107190945193
 40
1.0
 40
1.0
 40
1.0
 40
1.0
 10
7.982751524111884
 20
-16.3261634801967
 30
0.0
 10
8.021205024614133
 20
-16.42114004822571
 30
0.0
 10
8.09898145424469
 20
-16.61324059208721
 30
0.0
 10
8.178549120012612
 20
-16.80460619111288
 30
0.0
 10
8.218777678931541
 20
-16.90135858671431
 30
0.0
  0
SPLINE
  5
77
330
1F
100
AcDbEntity
  8
0
  6
Continuous
 62
     7
370
    15
100
AcDbSpline
210
0.0
220
0.0
230
1.0
 70
     8
 71
     3
 72
     9
 73
     5
 74
     0
 42
0.00000001
 43
0.00000001
 12
1.0
 22
0.0
 32
0.0
 13
1.0
 23
0.0
 33
0.0
 40
0.0
 40
0.0
 40
0.0
 40
0.0
 40
0.5024213785910383
 40
1.0
 40
1.0
 40
1.0
 40
1.0
 10
6.655816278383135
 20
-15.63453724100666
 30
0.0
 10
6.750083676002981
 20
-15.55499856176879
 30
0.0
 10
6.937709843273584
 20
-15.39668786356379
 30
0.0
 10
7.125532210394658
 20
-15.2386099901273
 30
0.0
 10
7.218988604896529
 20
-15.1599538197875
 30
0.0
  0
SPLINE
  5
78
330
1F
100
AcDbEntity
  8
0
  6
Continuous
 62
     7
370
    15
100
AcDbSpline
210
0.0
220
0.0
230
1.0
 70
     8
 71
     3
 72
     9
 73
     5
 74
     0
 42
0.00000001
 43
0.00000001
 12
1.0
 22
0.0
 32
0.0
 13
1.0
 23
0.0
 33
0.0
 40
0.0
 40
0.0
 40
0.0
 40
0.0
 40
0.5181219515510261
 40
1.0
 40
1.0
 40
1.0
 40
1.0
 10
6.490028469903911
 20
-15.79969227159092
 30
0.0
 10
6.517445697371476
 20
-15.76994604297951
 30
0.0
 10
6.570362249904119
 20
-15.7125344075096
 30
0.0
 10
6.628028282927859
 20
-15.65990040933101
 30
0.0
 10
6.655816278383135
 20
-15.63453724100666
 30
0.0
  0
SPLINE
  5
7A
330
1F
100
AcDbEntity
  8
0
  6
Continuous
 62
     7
370
    15
100
AcDbSpline
210
0.0
220
0.0
230
1.0
 70
     8
 71
     3
 72
     9
 73
     5
 74
     0
 42
0.00000001
 43
0.00000001
 12
1.0
 22
0.0
 32
0.0
 13
1.0
 23
0.0
 33
0.0
 40
0.0
 40
0.0
 40
0.0
 40
0.0
 40
0.5441325424941008
 40
1.0
 40
1.0
 40
1.0
 40
1.0
 10
6.20464563927746
 20
-14.82711264703914
 30
0.0
 10
6.197201405606168
 20
-14.83724038656986
 30
0.0
 10
6.183520485811935
 20
-14.85585301996301
 30
0.0
 10
6.185426287399444
 20
-14.87870665310836
 30
0.0
 10
6.186295080323654
 20
-14.88912488074511
 30
0.0
  0
SPLINE
  5
7B
330
1F
100
AcDbEntity
  8
0
  6
Continuous
 62
     7
370
    15
100
AcDbSpline
210
0.0
220
0.0
230
1.0
 70
     8
 71
     3
 72
     9
 73
     5
 74
     0
 42
0.00000001
 43
0.00000001
 12
1.0
 22
0.0
 32
0.0
 13
1.0
 23
0.0
 33
0.0
 40
0.0
 40
0.0
 40
0.0
 40
0.0
 40
0.4926363641294815
 40
1.0
 40
1.0
 40
1.0
 40
1.0
 10
6.298296767731374
 20
-14.66132483855991
 30
0.0
 10
6.297587725035717
 20
-14.67067193731827
 30
0.0
 10
6.296148442945957
 20
-14.68964556459989
 30
0.0
 10
6.290437213602208
 20
-14.70779893387671
 30
0.0
 10
6.287539543517073
 20
-14.71700929331629
 30
0.0
  0
SPLINE
  5
7D
330
1F
100
AcDbEntity
  8
0
  6
Continuous
 62
     7
370
    15
100
AcDbSpline
210
0.0
220
0.0
230
1.0
 70
     8
 71
     3
 72
     9
 73
     5
 74
     0
 42
0.00000001
 43
0.00000001
 12
1.0
 22
0.0
 32
0.0
 13
1.0
 23
0.0
 33
0.0
 40
0.0
 40
0.0
 40
0.0
 40
0.0
 40
0.5990690021453051
 40
1.0
 40
1.0
 40
1.0
 40
1.0
 10
6.495723470958541
 20
-17.67144928487926
 30
0.0
 10
6.481247110504832
 20
-17.67616707285049
 30
0.0
 10
6.45708234751114
 20
-17.68404227245912
 30
0.0
 10
6.432269482051627
 20
-17.68950714194272
 30
0.0
 10
6.422321235143311
 20
-17.69169817751794
 30
0.0
  0
SPLINE
  5
7F
330
1F
100
AcDbEntity
  8
0
  6
Continuous
 62
     7
370
    15
100
AcDbSpline
210
0.0
220
0.0
230
1.0
 70
     8
 71
     3
 72
    11
 73
     7
 74
     0
 42
0.00000001
 43
0.00000001
 12
1.0
 22
0.0
 32
0.0
 13
1.0
 23
0.0
 33
0.0
 40
0.0
 40
0.0
 40
0.0
 40
0.0
 40
0.2711376441563439
 40
0.5274793393111462
 40
0.7703711269953625
 40
1.0
 40
1.0
 40
1.0
 40
1.0
 10
6.705805732084886
 20
-15.94333285374658
 30
0.0
 10
6.689256352267175
 20
-15.96329027076136
 30
0.0
 10
6.657060690320574
 20
-16.00211603091747
 30
0.0
 10
6.611650740248584
 20
-16.06015584305672
 30
0.0
 10
6.572363855428923
 20
-16.11779923679864
 30
0.0
 10
6.54931873158245
 20
-16.15667166915637
 30
0.0
 10
6.538119589920784
 20
-16.17556234119649
 30
0.0
  0
SPLINE
  5
8D
330
1F
100
AcDbEntity
  8
0
  6
Continuous
 62
     7
370
    15
100
AcDbSpline
210
0.0
220
0.0
230
1.0
 70
     8
 71
     3
 72
    14
 73
    10
 74
     0
 42
0.00000001
 43
0.00000001
 12
1.0
 22
0.0
 32
0.0
 13
1.0
 23
0.0
 33
0.0
 40
0.0
 40
0.0
 40
0.0
 40
0.0
 40
0.1670068865405413
 40
0.3196174742750956
 40
0.4579215866233195
 40
0.5843779073533459
 40
0.6991629929465257
 40
0.8049304479243959
 40
0.8292711032971068
 40
0.8292711032971068
 40
0.8292711032971068
 40
0.8292711032971068
 10
8.454171055856241
 20
-17.22344253524838
 30
0.0
 10
8.466739196062262
 20
-17.23367555357467
 30
0.0
 10
8.490792079821691
 20
-17.25325948534787
 30
0.0
 10
8.526629244545955
 20
-17.27960853294782
 30
0.0
 10
8.561676420876934
 20
-17.3001210658873
 30
0.0
 10
8.595320698475408
 20
-17.31512505818276
 30
0.0
 10
8.627079654242992
 20
-17.32679539690834
 30
0.0
 10
8.650640646986506
 20
-17.33033309427385
 30
0.0
 10
8.663284843890958
 20
-17.33146417942383
 30
0.0
 10
8.665651609035569
 20
-17.3316355771569
 30
0.0
  0
SPLINE
  5
8E
330
1F
100
AcDbEntity
  8
0
  6
Continuous
 62
     7
370
    15
100
AcDbSpline
210
0.0
220
0.0
230
1.0
 70
     8
 71
     3
 72
    13
 73
     9
 74
     0
 42
0.00000001
 43
0.00000001
 12
1.0
 22
0.0
 32
0.0
 13
1.0
 23
0.0
 33
0.0
 40
0.0
 40
0.0
 40
0.0
 40
0.0
 40
0.3143221494867879
 40
0.635846574084936
 40
0.7803046650516574
 40
0.8915484124214577
 40
0.9623769381077827
 40
1.0
 40
1.0
 40
1.0
 40
1.0
 10
5.893951692852656
 20
-14.70245540173224
 30
0.0
 10
5.922002701765523
 20
-14.6948543834215
 30
0.0
 10
5.978747471251206
 20
-14.67947817954809
 30
0.0
 10
6.048416401769415
 20
-14.66072441129098
 30
0.0
 10
6.099806117112577
 20
-14.64631490066844
 30
0.0
 10
6.128897705284316
 20
-14.63824215352149
 30
0.0
 10
6.148505097385391
 20
-14.63292801003694
 30
0.0
 10
6.158239700377419
 20
-14.63052097205734
 30
0.0
 10
6.161616742420257
 20
-14.62968594381197
 30
0.0
  0
SPLINE
  5
8F
330
1F
100
AcDbEntity
  8
0
  6
Continuous
 62
     7
370
    15
100
AcDbSpline
210
0.0
220
0.0
230
1.0
 70
     8
 71
     3
 72
     8
 73
     4
 74
     0
 42
0.00000001
 43
0.00000001
 12
1.0
 22
0.0
 32
0.0
 13
1.0
 23
0.0
 33
0.0
 40
0.7387218961030915
 40
0.7387218961030915
 40
0.7387218961030915
 40
0.7387218961030915
 40
1.0
 40
1.0
 40
1.0
 40
1.0
 10
8.665651609035567
 20
-17.33163557715673
 30
0.0
 10
8.663394882591238
 20
-17.32528376843496
 30
0.0
 10
8.661609377154557
 20
-17.31865760448879
 30
0.0
 10
8.659823871717874
 20
-17.31203144054262
 30
0.0
  0
SPLINE
  5
90
330
1F
100
AcDbEntity
  8
0
  6
Continuous
 62
     7
370
    15
100
AcDbSpline
210
0.0
220
0.0
230
1.0
 70
     8
 71
     3
 72
     9
 73
     5
 74
     0
 42
0.00000001
 43
0.00000001
 12
1.0
 22
0.0
 32
0.0
 13
1.0
 23
0.0
 33
0.0
 40
0.0
 40
0.0
 40
0.0
 40
0.0
 40
0.5019241668973856
 40
1.0
 40
1.0
 40
1.0
 40
1.0
 10
7.440460868132133
 20
-15.66934002522939
 30
0.0
 10
7.488105330691889
 20
-15.70616621202003
 30
0.0
 10
7.583028958008472
 20
-15.779536233269
 30
0.0
 10
7.665689262089932
 20
-15.86648736696094
 30
0.0
 10
7.706860361909817
 20
-15.90979562531377
 30
0.0
  0
SPLINE
  5
91
330
1F
100
AcDbEntity
  8
0
  6
Continuous
 62
     7
370
    15
100
AcDbSpline
210
0.0
220
0.0
230
1.0
 70
     8
 71
     3
 72
    11
 73
     7
 74
     0
 42
0.00000001
 43
0.00000001
 12
1.0
 22
0.0
 32
0.0
 13
1.0
 23
0.0
 33
0.0
 40
0.0
 40
0.0
 40
0.0
 40
0.0
 40
0.2251310949753671
 40
0.4609408294348429
 40
0.7161762083091656
 40
1.0
 40
1.0
 40
1.0
 40
1.0
 10
7.066489132211441
 20
-14.613866496438
 30
0.0
 10
7.061745668774277
 20
-14.59796398196156
 30
0.0
 10
7.052033745277614
 20
-14.56540464930398
 30
0.0
 10
7.051322664687249
 20
-14.51231802609012
 30
0.0
 10
7.058942887865057
 20
-14.4557678549413
 30
0.0
 10
7.070933235257521
 20
-14.41798339366122
 30
0.0
 10
7.077246356425742
 20
-14.39808923425703
 30
0.0
  0
SPLINE
  5
92
330
1F
100
AcDbEntity
  8
0
  6
Continuous
 62
     7
370
    15
100
AcDbSpline
210
0.0
220
0.0
230
1.0
 70
     8
 71
     3
 72
    11
 73
     7
 74
     0
 42
0.00000001
 43
0.00000001
 12
1.0
 22
0.0
 32
0.0
 13
1.0
 23
0.0
 33
0.0
 40
0.0
 40
0.0
 40
0.0
 40
0.0
 40
0.2059578520828342
 40
0.4401248391718153
 40
0.70460059421734
 40
1.0
 40
1.0
 40
1.0
 40
1.0
 10
7.639153127149218
 20
-15.14539992820345
 30
0.0
 10
7.623771937931241
 20
-15.16332685831148
 30
0.0
 10
7.590902866116918
 20
-15.20163609076292
 30
0.0
 10
7.53329650587767
 20
-15.25837864169424
 30
0.0
 10
7.465511562834822
 20
-15.31918629164108
 30
0.0
 10
7.415560739934506
 20
-15.35951513799144
 30
0.0
 10
7.389205858640465
 20
-15.38079330512815
 30
0.0
  0
SPLINE
  5
93
330
1F
100
AcDbEntity
  8
0
  6
Continuous
 62
     7
370
    15
100
AcDbSpline
210
0.0
220
0.0
230
1.0
 70
     8
 71
     3
 72
     9
 73
     5
 74
     0
 42
0.00000001
 43
0.00000001
 12
1.0
 22
0.0
 32
0.0
 13
1.0
 23
0.0
 33
0.0
 40
0.0
 40
0.0
 40
0.0
 40
0.0
 40
0.499952183614484
 40
1.0
 40
1.0
 40
1.0
 40
1.0
 10
7.389205858640465
 20
-15.38079330512815
 30
0.0
 10
7.356036041437487
 20
-15.40621092252956
 30
0.0
 10
7.289690062181688
 20
-15.45705101931171
 30
0.0
 10
7.218934304769499
 20
-15.50154966085367
 30
0.0
 10
7.183553042778832
 20
-15.52380110938885
 30
0.0
  0
SPLINE
  5
94
330
1F
100
AcDbEntity
  8
0
  6
Continuous
 62
     7
370
    15
100
AcDbSpline
210
0.0
220
0.0
230
1.0
 70
     8
 71
     3
 72
    13
 73
     9
 74
     0
 42
0.00000001
 43
0.00000001
 12
1.0
 22
0.0
 32
0.0
 13
1.0
 23
0.0
 33
0.0
 40
0.0
 40
0.0
 40
0.0
 40
0.0
 40
0.2019679647099844
 40
0.4432369598053532
 40
0.5691989198805427
 40
0.6887758622888186
 40
0.8251943848176884
 40
1.0
 40
1.0
 40
1.0
 40
1.0
 10
5.593382192747193
 20
-14.90557710601404
 30
0.0
 10
5.586171937002606
 20
-14.89687918625356
 30
0.0
 10
5.570348378844566
 20
-14.87779081490319
 30
0.0
 10
5.56248847139643
 20
-14.84637731605941
 30
0.0
 10
5.562254358824431
 20
-14.81875713624904
 30
0.0
 10
5.574029216607928
 20
-14.79999210565009
 30
0.0
 10
5.594165180625963
 20
-14.78640163449124
 30
0.0
 10
5.610681899866079
 20
-14.78127066602044
 30
0.0
 10
5.619958864335466
 20
-14.77838874912731
 30
0.0
  0
SPLINE
  5
95
330
1F
100
AcDbEntity
  8
0
  6
Continuous
 62
     7
370
    15
100
AcDbSpline
210
0.0
220
0.0
230
1.0
 70
     8
 71
     3
 72
     9
 73
     5
 74
     0
 42
0.00000001
 43
0.00000001
 12
1.0
 22
0.0
 32
0.0
 13
1.0
 23
0.0
 33
0.0
 40
0.0
 40
0.0
 40
0.0
 40
0.0
 40
0.4354879834141339
 40
1.0
 40
1.0
 40
1.0
 40
1.0
 10
7.019030790089527
 20
-17.40758090268141
 30
0.0
 10
7.023538954013991
 20
-17.41021138928006
 30
0.0
 10
7.033890936378969
 20
-17.41625170887288
 30
0.0
 10
7.042997697290755
 20
-17.42405661175168
 30
0.0
 10
7.048138573257633
 20
-17.42846257321505
 30
0.0
  0
SPLINE
  5
96
330
1F
100
AcDbEntity
  8
0
  6
Continuous
 62
     7
370
    15
100
AcDbSpline
210
0.0
220
0.0
230
1.0
 70
     8
 71
     3
 72
    19
 73
    15
 74
     0
 42
0.00000001
 43
0.00000001
 12
1.0
 22
0.0
 32
0.0
 13
1.0
 23
0.0
 33
0.0
 40
0.0
 40
0.0
 40
0.0
 40
0.0
 40
0.0724055751808885
 40
0.1416000695016894
 40
0.2074063050398922
 40
0.2706043316998775
 40
0.3332894551101027
 40
0.3948104556558723
 40
0.457080754513654
 40
0.5202931688862104
 40
0.6453474885010279
 40
0.7652489706961075
 40
0.8823533193454877
 40
1.0
 40
1.0
 40
1.0
 40
1.0
 10
7.311374177560523
 20
-14.18484308365589
 30
0.0
 10
7.326914078294736
 20
-14.18092705830352
 30
0.0
 10
7.357304708001314
 20
-14.17326867756862
 30
0.0
 10
7.402972103011935
 20
-14.16760192432162
 30
0.0
 10
7.446844683309112
 20
-14.16711303266061
 30
0.0
 10
7.489272932835701
 20
-14.17036042990071
 30
0.0
 10
7.529561374359186
 20
-14.18053830257351
 30
0.0
 10
7.568889477943862
 20
-14.19328814320833
 30
0.0
 10
7.605579804140983
 20
-14.21278883010479
 30
0.0
 10
7.651396394245054
 20
-14.24400230779162
 30
0.0
 10
7.703378267418937
 20
-14.28868599799609
 30
0.0
 10
7.754148816462842
 20
-14.35091911706053
 30
0.0
 10
7.79518125939366
 20
-14.41848179544735
 30
0.0
 10
7.810956304611789
 20
-14.46812631384346
 30
0.0
 10
7.818862049317537
 20
-14.49300591850085
 30
0.0
  0
SPLINE
  5
97
330
1F
100
AcDbEntity
  8
0
  6
Continuous
 62
     7
370
    15
100
AcDbSpline
210
0.0
220
0.0
230
1.0
 70
     8
 71
     3
 72
    11
 73
     7
 74
     0
 42
0.00000001
 43
0.00000001
 12
1.0
 22
0.0
 32
0.0
 13
1.0
 23
0.0
 33
0.0
 40
0.0
 40
0.0
 40
0.0
 40
0.0
 40
0.263538404707151
 40
0.5129466264757276
 40
0.7547631538615236
 40
1.0
 40
1.0
 40
1.0
 40
1.0
 10
7.401861416539642
 20
-14.92139655338801
 30
0.0
 10
7.411366124548876
 20
-14.90038352746837
 30
0.0
 10
7.429865925040538
 20
-14.85948413457153
 30
0.0
 10
7.442759627753481
 20
-14.79444569514893
 30
0.0
 10
7.444897432350798
 20
-14.72972754839516
 30
0.0
 10
7.436054495611076
 20
-14.68802003914884
 30
0.0
 10
7.43160197760271
 20
-14.66701983961455
 30
0.0
  0
SPLINE
  5
98
330
1F
100
AcDbEntity
  8
0
  6
Continuous
 62
     7
370
    15
100
AcDbSpline
210
0.0
220
0.0
230
1.0
 70
     8
 71
     3
 72
     9
 73
     5
 74
     0
 42
0.00000001
 43
0.00000001
 12
1.0
 22
0.0
 32
0.0
 13
1.0
 23
0.0
 33
0.0
 40
0.0
 40
0.0
 40
0.0
 40
0.0
 40
0.4776284281038918
 40
1.0
 40
1.0
 40
1.0
 40
1.0
 10
7.13419636697204
 20
-15.83259672212878
 30
0.0
 10
7.107259374330685
 20
-15.80905843630873
 30
0.0
 10
7.050861992901169
 20
-15.75977685163945
 30
0.0
 10
6.990881678880953
 20
-15.71491947164946
 30
0.0
 10
6.959549667963392
 20
-15.69148725155295
 30
0.0
  0
SPLINE
  5
99
330
1F
100
AcDbEntity
  8
0
  6
Continuous
 62
     7
370
    15
100
AcDbSpline
210
0.0
220
0.0
230
1.0
 70
     8
 71
     3
 72
    11
 73
     7
 74
     0
 42
0.00000001
 43
0.00000001
 12
1.0
 22
0.0
 32
0.0
 13
1.0
 23
0.0
 33
0.0
 40
0.0
 40
0.0
 40
0.0
 40
0.0
 40
0.2928631460931505
 40
0.5580984372325317
 40
0.7922466152513948
 40
0.9999999999999999
 40
0.9999999999999999
 40
0.9999999999999999
 40
0.9999999999999999
 10
7.183553042778832
 20
-15.52380110938885
 30
0.0
 10
7.209628555084255
 20
-15.53620029082446
 30
0.0
 10
7.259319691923523
 20
-15.55982895108603
 30
0.0
 10
7.327823022100328
 20
-15.59733591162642
 30
0.0
 10
7.388196518370039
 20
-15.63228946665095
 30
0.0
 10
7.423747233292169
 20
-15.65749161403676
 30
0.0
 10
7.440460868132133
 20
-15.66934002522939
 30
0.0
  0
SPLINE
  5
9A
330
1F
100
AcDbEntity
  8
0
  6
Continuous
 62
     7
370
    15
100
AcDbSpline
210
0.0
220
0.0
230
1.0
 70
     8
 71
     3
 72
    11
 73
     7
 74
     0
 42
0.00000001
 43
0.00000001
 12
1.0
 22
0.0
 32
0.0
 13
1.0
 23
0.0
 33
0.0
 40
0.0
 40
0.0
 40
0.0
 40
0.0
 40
0.2531281023369438
 40
0.4999839570635629
 40
0.7486452030118176
 40
1.0
 40
1.0
 40
1.0
 40
1.0
 10
7.818862049317537
 20
-14.49300591850085
 30
0.0
 10
7.82553980889686
 20
-14.52177198892432
 30
0.0
 10
7.838729860210661
 20
-14.57859133686202
 30
0.0
 10
7.844953010319903
 20
-14.6659612466588
 30
0.0
 10
7.838830424347216
 20
-14.7531468794437
 30
0.0
 10
7.825542035530833
 20
-14.80994873006359
 30
0.0
 10
7.818862049317537
 20
-14.8385026491484
 30
0.0
  0
SPLINE
  5
9B
330
1F
100
AcDbEntity
  8
0
  6
Continuous
 62
     7
370
    15
100
AcDbSpline
210
0.0
220
0.0
230
1.0
 70
     8
 71
     3
 72
     9
 73
     5
 74
     0
 42
0.00000001
 43
0.00000001
 12
1.0
 22
0.0
 32
0.0
 13
1.0
 23
0.0
 33
0.0
 40
0.0
 40
0.0
 40
0.0
 40
0.0
 40
0.5254094057247533
 40
1.0
 40
1.0
 40
1.0
 40
1.0
 10
6.329935662479317
 20
-17.64487261329099
 30
0.0
 10
6.329690283927074
 20
-17.6366325245133
 30
0.0
 10
6.329223260402999
 20
-17.62094934737961
 30
0.0
 10
6.331422863241064
 20
-17.60541805455535
 30
0.0
 10
6.332466774059152
 20
-17.59804704906403
 30
0.0
  0
SPLINE
  5
9C
330
1F
100
AcDbEntity
  8
0
  6
Continuous
 62
     7
370
    15
100
AcDbSpline
210
0.0
220
0.0
230
1.0
 70
     8
 71
     3
 72
    15
 73
    11
 74
     0
 42
0.00000001
 43
0.00000001
 12
1.0
 22
0.0
 32
0.0
 13
1.0
 23
0.0
 33
0.0
 40
0.0
 40
0.0
 40
0.0
 40
0.0
 40
0.1510977732750391
 40
0.2947388637308406
 40
0.4305502582201626
 40
0.567380453523634
 40
0.6957203299305446
 40
0.8074344465855133
 40
0.9060833584139072
 40
0.9999999999999999
 40
0.9999999999999999
 40
0.9999999999999999
 40
0.9999999999999999
 10
8.766763335965923
 20
-17.18294474997101
 30
0.0
 10
8.780816468425241
 20
-17.17951218489916
 30
0.0
 10
8.808229210540105
 20
-17.17281645201687
 30
0.0
 10
8.849589125834541
 20
-17.17103278855539
 30
0.0
 10
8.889289492451281
 20
-17.17600173106977
 30
0.0
 10
8.925735506651078
 20
-17.18825726634796
 30
0.0
 10
8.958476149814304
 20
-17.20381048066486
 30
0.0
 10
8.983987151268746
 20
-17.22385066069988
 30
0.0
 10
9.00417534681425
 20
-17.24553243540834
 30
0.0
 10
9.01047452607359
 20
-17.26300974945639
 30
0.0
 10
9.013546714999883
 20
-17.27153365526526
 30
0.0
  0
SPLINE
  5
9D
330
1F
100
AcDbEntity
  8
0
  6
Continuous
 62
     7
370
    15
100
AcDbSpline
210
0.0
220
0.0
230
1.0
 70
     8
 71
     3
 72
     9
 73
     5
 74
     0
 42
0.00000001
 43
0.00000001
 12
1.0
 22
0.0
 32
0.0
 13
1.0
 23
0.0
 33
0.0
 40
0.0
 40
0.0
 40
0.0
 40
0.0
 40
0.5260394255235373
 40
1.0
 40
1.0
 40
1.0
 40
1.0
 10
7.048138573257633
 20
-17.42846257321505
 30
0.0
 10
7.050310021116098
 20
-17.43180142790747
 30
0.0
 10
7.0544379395821
 20
-17.43814858466114
 30
0.0
 10
7.057891651894999
 20
-17.44488560563008
 30
0.0
 10
7.059528575366894
 20
-17.44807868795878
 30
0.0
  0
SPLINE
  5
9E
330
1F
100
AcDbEntity
  8
0
  6
Continuous
 62
     7
370
    15
100
AcDbSpline
210
0.0
220
0.0
230
1.0
 70
     8
 71
     3
 72
    11
 73
     7
 74
     0
 42
0.00000001
 43
0.00000001
 12
1.0
 22
0.0
 32
0.0
 13
1.0
 23
0.0
 33
0.0
 40
0.0
 40
0.0
 40
0.0
 40
0.0
 40
0.1350484012063572
 40
0.3492713295254184
 40
0.6323419857268495
 40
1.0
 40
1.0
 40
1.0
 40
1.0
 10
5.781950005444935
 20
-15.00049379025787
 30
0.0
 10
5.780223382770194
 20
-14.99739082308975
 30
0.0
 10
5.775757874168766
 20
-14.98936571906334
 30
0.0
 10
5.761435101804842
 20
-14.98028611580168
 30
0.0
 10
5.741582520539388
 20
-14.97007642610558
 30
0.0
 10
5.725730298153826
 20
-14.96403957152929
 30
0.0
 10
5.716773882264172
 20
-14.96062878287546
 30
0.0
  0
SPLINE
  5
9F
330
1F
100
AcDbEntity
  8
0
  6
Continuous
 62
     7
370
    15
100
AcDbSpline
210
0.0
220
0.0
230
1.0
 70
     8
 71
     3
 72
    15
 73
    11
 74
     0
 42
0.00000001
 43
0.00000001
 12
1.0
 22
0.0
 32
0.0
 13
1.0
 23
0.0
 33
0.0
 40
0.0
 40
0.0
 40
0.0
 40
0.0
 40
0.1323597562292534
 40
0.2588091714748382
 40
0.3809135716289827
 40
0.5017434873852812
 40
0.6219770860926613
 40
0.7434762562492963
 40
0.8688572100357103
 40
1.0
 40
1.0
 40
1.0
 40
1.0
 10
7.077246356425742
 20
-14.39808923425703
 30
0.0
 10
7.082854473279955
 20
-14.38465718586916
 30
0.0
 10
7.093820284323452
 20
-14.35839287854867
 30
0.0
 10
7.114987223547891
 20
-14.32216335915147
 30
0.0
 10
7.139057073449343
 20
-14.28936053041599
 30
0.0
 10
7.167167341062741
 20
-14.26087829181649
 30
0.0
 10
7.198344273981356
 20
-14.23590177007385
 30
0.0
 10
7.233008143802839
 20
-14.21516622421973
 30
0.0
 10
7.270397050148575
 20
-14.19674617642277
 30
0.0
 10
7.297512122556632
 20
-14.18886975260689
 30
0.0
 10
7.311374177560523
 20
-14.18484308365589
 30
0.0
  0
SPLINE
  5
A0
330
1F
100
AcDbEntity
  8
0
  6
Continuous
 62
     7
370
    15
100
AcDbSpline
210
0.0
220
0.0
230
1.0
 70
     8
 71
     3
 72
    11
 73
     7
 74
     0
 42
0.00000001
 43
0.00000001
 12
1.0
 22
0.0
 32
0.0
 13
1.0
 23
0.0
 33
0.0
 40
0.0
 40
0.0
 40
0.0
 40
0.0
 40
0.1969484369545985
 40
0.4283143825984783
 40
0.6958975402421462
 40
1.0
 40
1.0
 40
1.0
 40
1.0
 10
6.959549667963392
 20
-15.69148725155295
 30
0.0
 10
6.941445835847796
 20
-15.70647465062393
 30
0.0
 10
6.902074456236156
 20
-15.73906855529819
 30
0.0
 10
6.842143509930943
 20
-15.79661877175813
 30
0.0
 10
6.775881906433954
 20
-15.86582726824923
 30
0.0
 10
6.730138487400638
 20
-15.91642036223246
 30
0.0
 10
6.705805732084886
 20
-15.94333285374658
 30
0.0
  0
SPLINE
  5
A1
330
1F
100
AcDbEntity
  8
0
  6
Continuous
 62
     7
370
    15
100
AcDbSpline
210
0.0
220
0.0
230
1.0
 70
     8
 71
     3
 72
     9
 73
     5
 74
     0
 42
0.00000001
 43
0.00000001
 12
1.0
 22
0.0
 32
0.0
 13
1.0
 23
0.0
 33
0.0
 40
0.0
 40
0.0
 40
0.0
 40
0.0
 40
0.4888170614852227
 40
1.0
 40
1.0
 40
1.0
 40
1.0
 10
5.716773882264172
 20
-14.96062878287546
 30
0.0
 10
5.6964563446767
 20
-14.95213482269397
 30
0.0
 10
5.654891638392224
 20
-14.93475826027266
 30
0.0
 10
5.614188792907822
 20
-14.91544812017321
 30
0.0
 10
5.593382192747193
 20
-14.90557710601404
 30
0.0
  0
SPLINE
  5
A2
330
1F
100
AcDbEntity
  8
0
  6
Continuous
 62
     7
370
    15
100
AcDbSpline
210
0.0
220
0.0
230
1.0
 70
     8
 71
     3
 72
    11
 73
     7
 74
     0
 42
0.00000001
 43
0.00000001
 12
1.0
 22
0.0
 32
0.0
 13
1.0
 23
0.0
 33
0.0
 40
0.0
 40
0.0
 40
0.0
 40
0.0
 40
0.1884785019395233
 40
0.4188734633711469
 40
0.6873943452985859
 40
1.0
 40
1.0
 40
1.0
 40
1.0
 10
6.693782952080666
 20
-17.61766316380775
 30
0.0
 10
6.681332885820048
 20
-17.62101821791979
 30
0.0
 10
6.653663935143335
 20
-17.62847446954129
 30
0.0
 10
6.608389807679077
 20
-17.64119109784185
 30
0.0
 10
6.554849762931865
 20
-17.65587904455776
 30
0.0
 10
6.516404401321896
 20
-17.66600319575236
 30
0.0
 10
6.495723470958541
 20
-17.67144928487926
 30
0.0
  0
SPLINE
  5
A3
330
1F
100
AcDbEntity
  8
0
  6
Continuous
 62
     7
370
    15
100
AcDbSpline
210
0.0
220
0.0
230
1.0
 70
     8
 71
     3
 72
    11
 73
     7
 74
     0
 42
0.00000001
 43
0.00000001
 12
1.0
 22
0.0
 32
0.0
 13
1.0
 23
0.0
 33
0.0
 40
0.0
 40
0.0
 40
0.0
 40
0.0
 40
0.3700602805362742
 40
0.649084028288483
 40
0.8564434661179922
 40
1.0
 40
1.0
 40
1.0
 40
1.0
 10
6.4071345656643
 20
-17.48794369534118
 30
0.0
 10
6.413291275842363
 20
-17.48027969944274
 30
0.0
 10
6.424090117148951
 20
-17.46683708592222
 30
0.0
 10
6.435284770083622
 20
-17.44739188718069
 30
0.0
 10
6.443600817019652
 20
-17.4322345744106
 30
0.0
 10
6.442869360141317
 20
-17.42282164758355
 30
0.0
 10
6.442570127781996
 20
-17.41897090479067
 30
0.0
  0
SPLINE
  5
A4
330
1F
100
AcDbEntity
  8
0
  6
Continuous
 62
     7
370
    15
100
AcDbSpline
210
0.0
220
0.0
230
1.0
 70
     8
 71
     3
 72
    11
 73
     7
 74
     0
 42
0.00000001
 43
0.00000001
 12
1.0
 22
0.0
 32
0.0
 13
1.0
 23
0.0
 33
0.0
 40
0.0
 40
0.0
 40
0.0
 40
0.0
 40
0.2243814512622619
 40
0.4636851481653244
 40
0.7219674883363427
 40
1.0
 40
1.0
 40
1.0
 40
1.0
 10
8.228269347355926
 20
-17.42023646058059
 30
0.0
 10
8.190709014409748
 20
-17.39514240033624
 30
0.0
 10
8.113090439214192
 20
-17.34328542652217
 30
0.0
 10
8.005168429214839
 20
-17.24559099096529
 30
0.0
 10
7.898141142760827
 20
-17.13184986440029
 30
0.0
 10
7.833427234292323
 20
-17.0454799762343
 30
0.0
 10
7.799878712468771
 20
-17.00070471622285
 30
0.0
  0
SPLINE
  5
A5
330
1F
100
AcDbEntity
  8
0
  6
Continuous
 62
     7
370
    15
100
AcDbSpline
210
0.0
220
0.0
230
1.0
 70
     8
 71
     3
 72
    11
 73
     7
 74
     0
 42
0.00000001
 43
0.00000001
 12
1.0
 22
0.0
 32
0.0
 13
1.0
 23
0.0
 33
0.0
 40
0.0
 40
0.0
 40
0.0
 40
0.0
 40
0.1881637632121645
 40
0.4052275452069641
 40
0.6825574229894753
 40
1.0
 40
1.0
 40
1.0
 40
1.0
 10
7.21266082594694
 20
-14.61513205222792
 30
0.0
 10
7.209249652252978
 20
-14.61932382118281
 30
0.0
 10
7.201903383669265
 20
-14.62835117169213
 30
0.0
 10
7.185438265287861
 20
-14.63924028695086
 30
0.0
 10
7.164362881501797
 20
-14.64906739023828
 30
0.0
 10
7.14799465637564
 20
-14.65375874214893
 30
0.0
 10
7.139258590131712
 20
-14.65626261540025
 30
0.0
  0
SPLINE
  5
A6
330
1F
100
AcDbEntity
  8
0
  6
Continuous
 62
     7
370
    15
100
AcDbSpline
210
0.0
220
0.0
230
1.0
 70
     8
 71
     3
 72
     9
 73
     5
 74
     0
 42
0.00000001
 43
0.00000001
 12
1.0
 22
0.0
 32
0.0
 13
1.0
 23
0.0
 33
0.0
 40
0.0
 40
0.0
 40
0.0
 40
0.0
 40
0.4695045575475549
 40
1.0
 40
1.0
 40
1.0
 40
1.0
 10
6.847547980555672
 20
-17.31013310685774
 30
0.0
 10
6.851999351842358
 20
-17.3198007870896
 30
0.0
 10
6.861480348810608
 20
-17.3403920253991
 30
0.0
 10
6.88214531735924
 20
-17.34997605393905
 30
0.0
 10
6.89310798899271
 20
-17.35506033739982
 30
0.0
  0
SPLINE
  5
A7
330
1F
100
AcDbEntity
  8
0
  6
Continuous
 62
     7
370
    15
100
AcDbSpline
210
0.0
220
0.0
230
1.0
 70
     8
 71
     3
 72
    11
 73
     7
 74
     0
 42
0.00000001
 43
0.00000001
 12
1.0
 22
0.0
 32
0.0
 13
1.0
 23
0.0
 33
0.0
 40
0.0
 40
0.0
 40
0.0
 40
0.0
 40
0.2331188803642941
 40
0.4769856609233092
 40
0.7384327690966231
 40
1.0
 40
1.0
 40
1.0
 40
1.0
 10
8.659823871717874
 20
-17.31203144054262
 30
0.0
 10
8.660708879572596
 20
-17.29792628929218
 30
0.0
 10
8.662519698395368
 20
-17.26906567156316
 30
0.0
 10
8.689127258885106
 20
-17.23206548578815
 30
0.0
 10
8.723736198882088
 20
-17.2018069826963
 30
0.0
 10
8.752418761059575
 20
-17.18923312350843
 30
0.0
 10
8.766763335965923
 20
-17.18294474997101
 30
0.0
  0
SPLINE
  5
A8
330
1F
100
AcDbEntity
  8
0
  6
Continuous
 62
     7
370
    15
100
AcDbSpline
210
0.0
220
0.0
230
1.0
 70
     8
 71
     3
 72
    10
 73
     6
 74
     0
 42
0.00000001
 43
0.00000001
 12
1.0
 22
0.0
 32
0.0
 13
1.0
 23
0.0
 33
0.0
 40
0.4184144353441401
 40
0.4184144353441401
 40
0.4184144353441401
 40
0.4184144353441401
 40
0.4228478836777343
 40
0.6773851831993118
 40
1.0
 40
1.0
 40
1.0
 40
1.0
 10
6.453220600440461
 20
-15.86544705227784
 30
0.0
 10
6.45325547327952
 20
-15.86525395605058
 30
0.0
 10
6.455334234357679
 20
-15.85398666410076
 30
0.0
 10
6.465397453668565
 20
-15.83036432363287
 30
0.0
 10
6.481196926425422
 20
-15.81068985117085
 30
0.0
 10
6.490028469903911
 20
-15.79969227159092
 30
0.0
  0
SPLINE
  5
A9
330
1F
100
AcDbEntity
  8
0
  6
Continuous
 62
     7
370
    15
100
AcDbSpline
210
0.0
220
0.0
230
1.0
 70
     8
 71
     3
 72
    15
 73
    11
 74
     0
 42
0.00000001
 43
0.00000001
 12
1.0
 22
0.0
 32
0.0
 13
1.0
 23
0.0
 33
0.0
 40
0.0
 40
0.0
 40
0.0
 40
0.0
 40
0.0513760375136015
 40
0.1443090983164046
 40
0.278200067756096
 40
0.4530842958574582
 40
0.6349916413780226
 40
0.7872285398103092
 40
0.9070669391971969
 40
0.9999999999999999
 40
0.9999999999999999
 40
0.9999999999999999
 40
0.9999999999999999
 10
5.619958864335465
 20
-14.77838874912731
 30
0.0
 10
5.624595782972874
 20
-14.77690132689079
 30
0.0
 10
5.637620328654386
 20
-14.77272333706994
 30
0.0
 10
5.662886678967353
 20
-14.76516819446188
 30
0.0
 10
5.699625924743338
 20
-14.75516064942068
 30
0.0
 10
5.744632941213134
 20
-14.74344050620158
 30
0.0
 10
5.791290485667076
 20
-14.73114979365119
 30
0.0
 10
5.832731567429999
 20
-14.71956582790705
 30
0.0
 10
5.866252656502477
 20
-14.71097413799704
 30
0.0
 10
5.88553128670049
 20
-14.70504506652584
 30
0.0
 10
5.893951692852656
 20
-14.70245540173224
 30
0.0
  0
SPLINE
  5
AA
330
1F
100
AcDbEntity
  8
0
  6
Continuous
 62
     7
370
    15
100
AcDbSpline
210
0.0
220
0.0
230
1.0
 70
     8
 71
     3
 72
    11
 73
     7
 74
     0
 42
0.00000001
 43
0.00000001
 12
1.0
 22
0.0
 32
0.0
 13
1.0
 23
0.0
 33
0.0
 40
0.0
 40
0.0
 40
0.0
 40
0.0
 40
0.4055402274059939
 40
0.7051689672602489
 40
0.9066894532031184
 40
1.0
 40
1.0
 40
1.0
 40
1.0
 10
6.89310798899271
 20
-17.35506033739982
 30
0.0
 10
6.910180709952419
 20
-17.36205559095133
 30
0.0
 10
6.939867414732577
 20
-17.3742192072569
 30
0.0
 10
6.978181117924338
 20
-17.38945423233263
 30
0.0
 10
7.003310394282317
 20
-17.39952896864572
 30
0.0
 10
7.015251553836648
 20
-17.40564519054116
 30
0.0
 10
7.019030790089527
 20
-17.40758090268141
 30
0.0
  0
SPLINE
  5
AB
330
1F
100
AcDbEntity
  8
0
  6
Continuous
 62
     7
370
    15
100
AcDbSpline
210
0.0
220
0.0
230
1.0
 70
     8
 71
     3
 72
    11
 73
     7
 74
     0
 42
0.00000001
 43
0.00000001
 12
1.0
 22
0.0
 32
0.0
 13
1.0
 23
0.0
 33
0.0
 40
0.0
 40
0.0
 40
0.0
 40
0.0
 40
0.1043884276387875
 40
0.3035216086868777
 40
0.6042391989377385
 40
1.0
 40
1.0
 40
1.0
 40
1.0
 10
6.332466774059152
 20
-17.59804704906403
 30
0.0
 10
6.334749102677756
 20
-17.59401626926638
 30
0.0
 10
6.341385241084472
 20
-17.58229630378631
 30
0.0
 10
6.356507653733456
 20
-17.56013535579563
 30
0.0
 10
6.379102272110046
 20
-17.52746871459935
 30
0.0
 10
6.396977373878756
 20
-17.50226514927986
 30
0.0
 10
6.4071345656643
 20
-17.48794369534119
 30
0.0
  0
SPLINE
  5
AC
330
1F
100
AcDbEntity
  8
0
  6
Continuous
 62
     7
370
    15
100
AcDbSpline
210
0.0
220
0.0
230
1.0
 70
     8
 71
     3
 72
    11
 73
     7
 74
     0
 42
0.00000001
 43
0.00000001
 12
1.0
 22
0.0
 32
0.0
 13
1.0
 23
0.0
 33
0.0
 40
0.0
 40
0.0
 40
0.0
 40
0.0
 40
0.0487984336511326
 40
0.2324212531713387
 40
0.5501006715071499
 40
0.9999999999999999
 40
0.9999999999999999
 40
0.9999999999999999
 40
0.9999999999999999
 10
6.287539543517073
 20
-14.71700929331629
 30
0.0
 10
6.286047633253203
 20
-14.71868422308397
 30
0.0
 10
6.278941838513419
 20
-14.72666171839375
 30
0.0
 10
6.26460880201536
 20
-14.74755294514319
 30
0.0
 10
6.237303994313132
 20
-14.78167631842608
 30
0.0
 10
6.216714006090842
 20
-14.81032238679006
 30
0.0
 10
6.20464563927746
 20
-14.82711264703914
 30
0.0
  0
SPLINE
  5
AD
330
1F
100
AcDbEntity
  8
0
  6
Continuous
 62
     7
370
    15
100
AcDbSpline
210
0.0
220
0.0
230
1.0
 70
     8
 71
     3
 72
    15
 73
    11
 74
     0
 42
0.00000001
 43
0.00000001
 12
1.0
 22
0.0
 32
0.0
 13
1.0
 23
0.0
 33
0.0
 40
0.0
 40
0.0
 40
0.0
 40
0.0
 40
0.0553890371773585
 40
0.1497488138608659
 40
0.286600689637059
 40
0.4631536462726927
 40
0.6441059085536321
 40
0.7925282565724503
 40
0.9128219065129927
 40
1.0
 40
1.0
 40
1.0
 40
1.0
 10
6.962080779543228
 20
-17.54426092799253
 30
0.0
 10
6.957249728697183
 20
-17.54601348602044
 30
0.0
 10
6.944188585720815
 20
-17.55075167067351
 30
0.0
 10
6.918341484258683
 20
-17.55708576670789
 30
0.0
 10
6.882013367253563
 20
-17.56754886317442
 30
0.0
 10
6.837675163838329
 20
-17.57922468557125
 30
0.0
 10
6.792221354064696
 20
-17.59084263046554
 30
0.0
 10
6.751974139589318
 20
-17.60175502819904
 30
0.0
 10
6.720167451539793
 20
-17.61056039685232
 30
0.0
 10
6.701589338076132
 20
-17.61556166703402
 30
0.0
 10
6.693782952080666
 20
-17.61766316380775
 30
0.0
  0
SPLINE
  5
AE
330
1F
100
AcDbEntity
  8
0
  6
Continuous
 62
     7
370
    15
100
AcDbSpline
210
0.0
220
0.0
230
1.0
 70
     8
 71
     3
 72
    11
 73
     7
 74
     0
 42
0.00000001
 43
0.00000001
 12
1.0
 22
0.0
 32
0.0
 13
1.0
 23
0.0
 33
0.0
 40
0.0
 40
0.0
 40
0.0
 40
0.0
 40
0.233730178448869
 40
0.47689697168224
 40
0.7323647978896556
 40
1.0
 40
1.0
 40
1.0
 40
1.0
 10
7.706860361909817
 20
-15.90979562531376
 30
0.0
 10
7.732657905950146
 20
-15.93914017452871
 30
0.0
 10
7.785294543252689
 20
-15.99901402885449
 30
0.0
 10
7.856798389654798
 20
-16.09855699001166
 30
0.0
 10
7.923213587406695
 20
-16.20817260817149
 30
0.0
 10
7.962600167935896
 20
-16.28622800007637
 30
0.0
 10
7.982751524111884
 20
-16.3261634801967
 30
0.0
  0
SPLINE
  5
AF
330
1F
100
AcDbEntity
  8
0
  6
Continuous
 62
     7
370
    15
100
AcDbSpline
210
0.0
220
0.0
230
1.0
 70
     8
 71
     3
 72
    11
 73
     7
 74
     0
 42
0.00000001
 43
0.00000001
 12
1.0
 22
0.0
 32
0.0
 13
1.0
 23
0.0
 33
0.0
 40
0.0
 40
0.0
 40
0.0
 40
0.0
 40
0.3466188867659093
 40
0.6061718910323709
 40
0.8074249978943328
 40
1.0
 40
1.0
 40
1.0
 40
1.0
 10
6.161616742420257
 20
-14.62968594381197
 30
0.0
 10
6.17921375659628
 20
-14.62565036353877
 30
0.0
 10
6.209987657750736
 20
-14.61859288508328
 30
0.0
 10
6.252454618570162
 20
-14.61726763345078
 30
0.0
 10
6.285688560981663
 20
-14.63253074204271
 30
0.0
 10
6.294156227895339
 20
-14.65186884643995
 30
0.0
 10
6.298296767731374
 20
-14.66132483855991
 30
0.0
  0
SPLINE
  5
B0
330
1F
100
AcDbEntity
  8
0
  6
Continuous
 62
     7
370
    15
100
AcDbSpline
210
0.0
220
0.0
230
1.0
 70
     8
 71
     3
 72
    11
 73
     7
 74
     0
 42
0.00000001
 43
0.00000001
 12
1.0
 22
0.0
 32
0.0
 13
1.0
 23
0.0
 33
0.0
 40
0.0
 40
0.0
 40
0.0
 40
0.0
 40
0.2570490697128001
 40
0.4825886480607449
 40
0.7111182762067703
 40
1.0
 40
1.0
 40
1.0
 40
1.0
 10
7.13925859013171
 20
-14.65626261540024
 30
0.0
 10
7.131247417652255
 20
-14.65782767936177
 30
0.0
 10
7.116207095193355
 20
-14.66076595920912
 30
0.0
 10
7.093981888144305
 20
-14.65385581718205
 30
0.0
 10
7.076656193136803
 20
-14.63722621229444
 30
0.0
 10
7.070131825140885
 20
-14.6222359035271
 30
0.0
 10
7.066489132211441
 20
-14.613866496438
 30
0.0
  0
SPLINE
  5
B1
330
1F
100
AcDbEntity
  8
0
  6
Continuous
 62
     7
370
    15
100
AcDbSpline
210
0.0
220
0.0
230
1.0
 70
     8
 71
     3
 72
    15
 73
    11
 74
     0
 42
0.00000001
 43
0.00000001
 12
1.0
 22
0.0
 32
0.0
 13
1.0
 23
0.0
 33
0.0
 40
0.0
 40
0.0
 40
0.0
 40
0.0
 40
0.1243091940926266
 40
0.2454183846505536
 40
0.365786839265565
 40
0.4857633637983879
 40
0.609068065862693
 40
0.7346479150625268
 40
0.8646016712324339
 40
1.0
 40
1.0
 40
1.0
 40
1.0
 10
8.818018345457592
 20
-17.51578592271937
 30
0.0
 10
8.793236457174109
 20
-17.52182792159343
 30
0.0
 10
8.744310623204088
 20
-17.5337563844441
 30
0.0
 10
8.669517162416362
 20
-17.54181175930198
 30
0.0
 10
8.595311110756144
 20
-17.54165594074426
 30
0.0
 10
8.520955211878313
 20
-17.53431145802237
 30
0.0
 10
8.447045907346993
 20
-17.51746214830883
 30
0.0
 10
8.373255206445952
 20
-17.49304170982616
 30
0.0
 10
8.299223828290698
 20
-17.46182069057105
 30
0.0
 10
8.252242168864251
 20
-17.43428619091458
 30
0.0
 10
8.228269347355926
 20
-17.42023646058059
 30
0.0
  0
SPLINE
  5
B2
330
1F
100
AcDbEntity
  8
0
  6
Continuous
 62
     7
370
    15
100
AcDbSpline
210
0.0
220
0.0
230
1.0
 70
     8
 71
     3
 72
    11
 73
     7
 74
     0
 42
0.00000001
 43
0.00000001
 12
1.0
 22
0.0
 32
0.0
 13
1.0
 23
0.0
 33
0.0
 40
0.0
 40
0.0
 40
0.0
 40
0.0
 40
0.0391696434172211
 40
0.211694026416884
 40
0.5375327270158559
 40
1.0
 40
1.0
 40
1.0
 40
1.0
 10
7.258220834383978
 20
-14.54742481746732
 30
0.0
 10
7.258470446163065
 20
-14.5478448330572
 30
0.0
 10
7.259819483783681
 20
-14.55011482541923
 30
0.0
 10
7.254637252366805
 20
-14.55628737289843
 30
0.0
 10
7.248707130809398
 20
-14.56504472433114
 30
0.0
 10
7.242738847990615
 20
-14.57268382609097
 30
0.0
 10
7.239237497535212
 20
-14.57716537853038
 30
0.0
  0
SPLINE
  5
B3
330
1F
100
AcDbEntity
  8
0
  6
Continuous
 62
     7
370
    15
100
AcDbSpline
210
0.0
220
0.0
230
1.0
 70
     8
 71
     3
 72
    15
 73
    11
 74
     0
 42
0.00000001
 43
0.00000001
 12
1.0
 22
0.0
 32
0.0
 13
1.0
 23
0.0
 33
0.0
 40
0.0
 40
0.0
 40
0.0
 40
0.0
 40
0.1586241125884527
 40
0.3039470018478189
 40
0.4337696578162119
 40
0.5504923718214871
 40
0.6603913244927185
 40
0.7707940255119574
 40
0.8840395030751103
 40
1.0
 40
1.0
 40
1.0
 40
1.0
 10
7.463240872350652
 20
-16.35337292967993
 30
0.0
 10
7.449814409380606
 20
-16.32339022378807
 30
0.0
 10
7.424087342426076
 20
-16.26593897369497
 30
0.0
 10
7.386227298264413
 20
-16.1844397383065
 30
0.0
 10
7.348293504016317
 20
-16.11266472399199
 30
0.0
 10
7.312664347162563
 20
-16.04800835929749
 30
0.0
 10
7.275567432761288
 20
-15.98876860789793
 30
0.0
 10
7.2330745673953
 20
-15.93420712196362
 30
0.0
 10
7.18652547872255
 20
-15.88136224655171
 30
0.0
 10
7.151776608115934
 20
-15.84897975731101
 30
0.0
 10
7.13419636697204
 20
-15.83259672212878
 30
0.0
  0
SPLINE
  5
B4
330
1F
100
AcDbEntity
  8
0
  6
Continuous
 62
     7
370
    15
100
AcDbSpline
210
0.0
220
0.0
230
1.0
 70
     8
 71
     3
 72
    11
 73
     7
 74
     0
 42
0.00000001
 43
0.00000001
 12
1.0
 22
0.0
 32
0.0
 13
1.0
 23
0.0
 33
0.0
 40
0.0
 40
0.0
 40
0.0
 40
0.0
 40
0.3028419203452385
 40
0.568229996056652
 40
0.7999032198075774
 40
1.0
 40
1.0
 40
1.0
 40
1.0
 10
7.218988604896529
 20
-15.1599538197875
 30
0.0
 10
7.239990152264011
 20
-15.13788366601016
 30
0.0
 10
7.279395889634197
 20
-15.09647287525976
 30
0.0
 10
7.329949395130538
 20
-15.03389653317112
 30
0.0
 10
7.371760516234535
 20
-14.97742975104586
 30
0.0
 10
7.392329196484457
 20
-14.93914089874169
 30
0.0
 10
7.401861416539642
 20
-14.92139655338801
 30
0.0
  0
SPLINE
  5
B5
330
1F
100
AcDbEntity
  8
0
  6
Continuous
 62
     7
370
    15
100
AcDbSpline
210
0.0
220
0.0
230
1.0
 70
     8
 71
     3
 72
    11
 73
     7
 74
     0
 42
0.00000001
 43
0.00000001
 12
1.0
 22
0.0
 32
0.0
 13
1.0
 23
0.0
 33
0.0
 40
0.0
 40
0.0
 40
0.0
 40
0.0
 40
0.1991114799474718
 40
0.4300387743419578
 40
0.6958607571680061
 40
0.9999999999999999
 40
0.9999999999999999
 40
0.9999999999999999
 40
0.9999999999999999
 10
7.818862049317537
 20
-14.8385026491484
 30
0.0
 10
7.811459813655171
 20
-14.8611147728727
 30
0.0
 10
7.79547254686134
 20
-14.90995218784361
 30
0.0
 10
7.755723154834547
 20
-14.98322671274343
 30
0.0
 10
7.703509053790342
 20
-15.06328638474183
 30
0.0
 10
7.661545476205148
 20
-15.11682889794441
 30
0.0
 10
7.639153127149219
 20
-15.14539992820345
 30
0.0
  0
SPLINE
  5
B6
330
1F
100
AcDbEntity
  8
0
  6
Continuous
 62
     7
370
    15
100
AcDbSpline
210
0.0
220
0.0
230
1.0
 70
     8
 71
     3
 72
     9
 73
     5
 74
     0
 42
0.00000001
 43
0.00000001
 12
1.0
 22
0.0
 32
0.0
 13
1.0
 23
0.0
 33
0.0
 40
0.0
 40
0.0
 40
0.0
 40
0.0
 40
0.4507832464918581
 40
1.0
 40
1.0
 40
1.0
 40
1.0
 10
7.239237497535213
 20
-14.57716537853039
 30
0.0
 10
7.235224095617925
 20
-14.58285631165242
 30
0.0
 10
7.226320921091097
 20
-14.59548085607888
 30
0.0
 10
7.217503500860374
 20
-14.6081654569293
 30
0.0
 10
7.21266082594694
 20
-14.61513205222792
 30
0.0
  0
SPLINE
  5
B7
330
1F
100
AcDbEntity
  8
0
  6
Continuous
 62
     7
370
    15
100
AcDbSpline
210
0.0
220
0.0
230
1.0
 70
     8
 71
     3
 72
    11
 73
     7
 74
     0
 42
0.00000001
 43
0.00000001
 12
1.0
 22
0.0
 32
0.0
 13
1.0
 23
0.0
 33
0.0
 40
0.0
 40
0.0
 40
0.0
 40
0.0
 40
0.1987298125991285
 40
0.3975027289429742
 40
0.6569616289564372
 40
1.0
 40
1.0
 40
1.0
 40
1.0
 10
7.059528575366895
 20
-17.44807868795878
 30
0.0
 10
7.061017272464292
 20
-17.45844148354442
 30
0.0
 10
7.063994989551858
 20
-17.47916932236689
 30
0.0
 10
7.043569221909564
 20
-17.50869855690541
 30
0.0
 10
7.008303347946852
 20
-17.53007875536814
 30
0.0
 10
6.978850231549717
 20
-17.53911566516127
 30
0.0
 10
6.962080779543228
 20
-17.54426092799253
 30
0.0
  0
SPLINE
  5
B8
330
1F
100
AcDbEntity
  8
0
  6
Continuous
 62
     7
370
    15
100
AcDbSpline
210
0.0
220
0.0
230
1.0
 70
     8
 71
     3
 72
    15
 73
    11
 74
     0
 42
0.00000001
 43
0.00000001
 12
1.0
 22
0.0
 32
0.0
 13
1.0
 23
0.0
 33
0.0
 40
0.0
 40
0.0
 40
0.0
 40
0.0
 40
0.0518907904227039
 40
0.1235753683397601
 40
0.2165204662866032
 40
0.3309243936563465
 40
0.4668046033928603
 40
0.6239458182501363
 40
0.8008686318113929
 40
1.0
 40
1.0
 40
1.0
 40
1.0
 10
7.601819231346645
 20
-16.66849632136945
 30
0.0
 10
7.599481928849624
 20
-16.6630196171115
 30
0.0
 10
7.593915757769207
 20
-16.64997711495552
 30
0.0
 10
7.58467335189773
 20
-16.62690518872644
 30
0.0
 10
7.570850582964176
 20
-16.59800722917397
 30
0.0
 10
7.555207487716457
 20
-16.56185708794846
 30
0.0
 10
7.537206759142223
 20
-16.51870344180602
 30
0.0
 10
7.514672957713151
 20
-16.46970140326634
 30
0.0
 10
7.490115796157137
 20
-16.41365915861122
 30
0.0
 10
7.472545070531782
 20
-16.3742442454689
 30
0.0
 10
7.463240872350652
 20
-16.35337292967993
 30
0.0
  0
SPLINE
  5
B9
330
1F
100
AcDbEntity
  8
0
  6
Continuous
 62
     7
370
    15
100
AcDbSpline
210
0.0
220
0.0
230
1.0
 70
     8
 71
     3
 72
    11
 73
     7
 74
     0
 42
0.00000001
 43
0.00000001
 12
1.0
 22
0.0
 32
0.0
 13
1.0
 23
0.0
 33
0.0
 40
0.0
 40
0.0
 40
0.0
 40
0.0
 40
0.2452127437987612
 40
0.4918312273900239
 40
0.7435280927627574
 40
1.0
 40
1.0
 40
1.0
 40
1.0
 10
7.799878712468771
 20
-17.00070471622285
 30
0.0
 10
7.781434664118025
 20
-16.97496473102658
 30
0.0
 10
7.744440832566466
 20
-16.92333720010808
 30
0.0
 10
7.694069359227451
 20
-16.84156869405581
 30
0.0
 10
7.645558292811512
 20
-16.75701769353014
 30
0.0
 10
7.616489965994066
 20
-16.69818771204179
 30
0.0
 10
7.601819231346645
 20
-16.66849632136945
 30
0.0
  0
SPLINE
  5
BA
330
1F
100
AcDbEntity
  8
0
  6
Continuous
 62
     7
370
    15
100
AcDbSpline
210
0.0
220
0.0
230
1.0
 70
     8
 71
     3
 72
    11
 73
     7
 74
     0
 42
0.00000001
 43
0.00000001
 12
1.0
 22
0.0
 32
0.0
 13
1.0
 23
0.0
 33
0.0
 40
0.0
 40
0.0
 40
0.0
 40
0.0
 40
0.2873031965165281
 40
0.519326870701157
 40
0.740255856067507
 40
1.0
 40
1.0
 40
1.0
 40
1.0
 10
6.422321235143311
 20
-17.69169817751794
 30
0.0
 10
6.411207053135733
 20
-17.69404795635072
 30
0.0
 10
6.391117150091211
 20
-17.69829539704357
 30
0.0
 10
6.361574008477054
 20
-17.69214792838395
 30
0.0
 10
6.339583545108779
 20
-17.67270167912287
 30
0.0
 10
6.333320214818856
 20
-17.65463526624665
 30
0.0
 10
6.329935662479317
 20
-17.64487261329099
 30
0.0
  0
SPLINE
  5
BB
330
1F
100
AcDbEntity
  8
0
  6
Continuous
 62
     7
370
    15
100
AcDbSpline
210
0.0
220
0.0
230
1.0
 70
     8
 71
     3
 72
    15
 73
    11
 74
     0
 42
0.00000001
 43
0.00000001
 12
1.0
 22
0.0
 32
0.0
 13
1.0
 23
0.0
 33
0.0
 40
0.0
 40
0.0
 40
0.0
 40
0.0
 40
0.1636923839870904
 40
0.3047033527457414
 40
0.4287297834739636
 40
0.5407647507926328
 40
0.6488795463519799
 40
0.7560643738506662
 40
0.8716780814803953
 40
1.0
 40
1.0
 40
1.0
 40
1.0
 10
7.43160197760271
 20
-14.66701983961454
 30
0.0
 10
7.427749120177056
 20
-14.65443219411102
 30
0.0
 10
7.420577261922854
 20
-14.63100106252946
 30
0.0
 10
7.405138005041289
 20
-14.60012423950102
 30
0.0
 10
7.387705982055997
 20
-14.57503636643112
 30
0.0
 10
7.365933867131453
 20
-14.55756951169396
 30
0.0
 10
7.342209645437612
 20
-14.54561622272453
 30
0.0
 10
7.315820107349997
 20
-14.54090606690742
 30
0.0
 10
7.287438532638539
 20
-14.54070049132747
 30
0.0
 10
7.268292547230219
 20
-14.54510685657338
 30
0.0
 10
7.258220834383978
 20
-14.54742481746732
 30
0.0
  0
SPLINE
  5
BC
330
1F
100
AcDbEntity
  8
0
  6
Continuous
 62
     7
370
    15
100
AcDbSpline
210
0.0
220
0.0
230
1.0
 70
     8
 71
     3
 72
    15
 73
    11
 74
     0
 42
0.00000001
 43
0.00000001
 12
1.0
 22
0.0
 32
0.0
 13
1.0
 23
0.0
 33
0.0
 40
0.0
 40
0.0
 40
0.0
 40
0.0
 40
0.0937988879456466
 40
0.1906453987740791
 40
0.2978251641381133
 40
0.4143548046197248
 40
0.5401332449310411
 40
0.6764509939283194
 40
0.8288670394422113
 40
1.0
 40
1.0
 40
1.0
 40
1.0
 10
9.013546714999883
 20
-17.27153365526525
 30
0.0
 10
9.015479888551608
 20
-17.28224745792096
 30
0.0
 10
9.019409046463178
 20
-17.30402316576165
 30
0.0
 10
9.016705433786564
 20
-17.33888171076509
 30
0.0
 10
9.004352666301216
 20
-17.37410164824829
 30
0.0
 10
8.986407193411013
 20
-17.41048413621752
 30
0.0
 10
8.959009309134435
 20
-17.44534046058063
 30
0.0
 10
8.920245719995863
 20
-17.47420391708166
 30
0.0
 10
8.873024778442085
 20
-17.49937519660953
 30
0.0
 10
8.83704756900196
 20
-17.51010870718792
 30
0.0
 10
8.818018345457592
 20
-17.51578592271937
 30
0.0
  0
LINE
  5
BD
330
1F
100
AcDbEntity
  8
0
  6
Continuous
 62
     7
370
    15
100
AcDbLine
 10
8.8305757146
 20
-7.2621256331
 30
0.0
 11
8.8305757146
 21
-13.425041
 31
0.0
  0
LINE
  5
BE
330
1F
100
AcDbEntity
  8
0
  6
Continuous
 62
     7
370
    15
100
AcDbLine
 10
8.8305757146
 20
-13.425041
 30
0.0
 11
11.9705757146
 21
-13.425041
 31
0.0
  0
LINE
  5
BF
330
1F
100
AcDbEntity
  8
0
  6
Continuous
 62
     7
370
    15
100
AcDbLine
 10
11.9705757146
 20
-7.2621256331
 30
0.0
 11
11.9705757146
 21
-13.425041
 31
0.0
  0
LINE
  5
C0
330
1F
100
AcDbEntity
  8
0
  6
Continuous
 62
     7
370
    15
100
AcDbLine
 10
8.8305757146
 20
-7.2621256331
 30
0.0
 11
11.9705757146
 21
-7.2621256331
 31
0.0
  0
LINE
  5
C1
330
1F
100
AcDbEntity
  8
0
  6
Continuous
 62
     7
370
    15
100
AcDbLine
 10
9.343448
 20
-4.398756
 30
0.0
 11
9.309049
 21
-6.705311
 31
0.0
  0
LINE
  5
C2
330
1F
100
AcDbEntity
  8
0
  6
Continuous
 62
     7
370
    15
100
AcDbLine
 10
9.559021
 20
-6.959039
 30
0.0
 11
11.263514
 21
-6.959039
 31
0.0
  0
LINE
  5
C3
330
1F
100
AcDbEntity
  8
0
  6
Continuous
 62
     7
370
    15
100
AcDbLine
 10
6.1862950803
 20
-14.8891248807
 30
0.0
 11
6.4532206001
 21
-15.8654470522
 31
0.0
  0
LINE
  5
C4
330
1F
100
AcDbEntity
  8
0
  6
Continuous
 62
     7
370
    15
100
AcDbLine
 10
6.4425701278
 20
-17.4189709048
 30
0.0
 11
5.7819500054
 21
-15.0004937903
 31
0.0
  0
LINE
  5
C5
330
1F
100
AcDbEntity
  8
0
  6
Continuous
 62
     7
370
    15
100
AcDbLine
 10
6.5381195899
 20
-16.1755623412
 30
0.0
 11
6.8475479806
 21
-17.3101331069
 31
0.0
  0
LINE
  5
C6
330
1F
100
AcDbEntity
  8
0
  6
Continuous
 62
     7
370
    15
100
AcDbLine
 10
11.513486202
 20
-6.7053109665
 30
0.0
 11
11.504265
 21
-6.086961
 31
0.0
  0
LINE
  5
C7
330
1F
100
AcDbEntity
  8
0
  6
Continuous
 62
     7
370
    15
100
AcDbLine
 10
11.504265
 20
-6.086961
 30
0.0
 11
11.5667399062
 21
-6.0869633292
 31
0.0
  0
LINE
  5
C8
330
1F
100
AcDbEntity
  8
0
  6
Continuous
 62
     7
370
    15
100
AcDbLine
 10
9.2975971411
 20
-4.3987560532
 30
0.0
 11
9.343448
 21
-4.398756
 31
0.0
  0
ARC
  5
C9
330
1F
100
AcDbEntity
  8
0
  6
Continuous
 62
     7
370
    15
100
AcDbCircle
 10
9.5590212025
 20
-6.709039
 30
0.0
 40
0.2500000000000012
100
AcDbArc
 50
179.1455736677
 51
269.9999535935
  0
ARC
  5
CA
330
1F
100
AcDbEntity
  8
0
  6
Continuous
 62
     7
370
    15
100
AcDbCircle
 10
11.9210112048
 20
-5.860194796
 30
0.0
 40
0.4206329999980321
100
AcDbArc
 50
212.6232473428
 51
214.9457472809
  0
ARC
  5
CB
330
1F
100
AcDbEntity
  8
0
  6
Continuous
 62
     7
370
    15
100
AcDbCircle
 10
9.2331421852
 20
-7.548790916
 30
0.0
 40
2.754219999999782
100
AcDbArc
 50
23.6854965294
 51
31.7096042902
  0
ARC
  5
CC
330
1F
100
AcDbEntity
  8
0
  6
Continuous
 62
     7
370
    15
100
AcDbCircle
 10
11.869829
 20
-6.392162
 30
0.0
 40
0.1250000000000358
100
AcDbArc
 50
203.685614
 51
225.572463
  0
ARC
  5
CD
330
1F
100
AcDbEntity
  8
0
  6
Continuous
 62
     7
370
    15
100
AcDbCircle
 10
8.7753303252
 20
-9.5491031496
 30
0.0
 40
4.295655999996046
100
AcDbArc
 50
44.4846088419
 51
45.5722742324
  0
ARC
  5
CE
330
1F
100
AcDbEntity
  8
0
  6
Continuous
 62
     7
370
    15
100
AcDbCircle
 10
12.457177665
 20
-5.9329210401
 30
0.0
 40
0.8650389999999957
100
AcDbArc
 50
224.4838737952
 51
276.831493347
  0
ARC
  5
CF
330
1F
100
AcDbEntity
  8
0
  6
Continuous
 62
     7
370
    15
100
AcDbCircle
 10
12.3785991776
 20
-5.2742556236
 30
0.0
 40
1.528374999999914
100
AcDbArc
 50
276.8192166732
 51
287.724777654
  0
ARC
  5
D0
330
1F
100
AcDbEntity
  8
0
  6
Continuous
 62
     7
370
    15
100
AcDbCircle
 10
12.452084305
 20
-5.5041726231
 30
0.0
 40
1.287000000000046
100
AcDbArc
 50
287.7247910896
 51
321.013157416
  0
ARC
  5
D1
330
1F
100
AcDbEntity
  8
0
  6
Continuous
 62
     7
370
    15
100
AcDbCircle
 10
11.0329627662
 20
-4.3555329336
 30
0.0
 40
3.112726999999996
100
AcDbArc
 50
321.0131972758
 51
345.9386597147
  0
ARC
  5
D2
330
1F
100
AcDbEntity
  8
0
  6
Continuous
 62
     7
370
    15
100
AcDbCircle
 10
18.5923090635
 20
-6.2493739139
 30
0.0
 40
4.680240999999645
100
AcDbArc
 50
160.4531523439
 51
165.9328893904
  0
ARC
  5
D3
330
1F
100
AcDbEntity
  8
0
  6
Continuous
 62
     7
370
    15
100
AcDbCircle
 10
15.2140740001
 20
-5.0521549999
 30
0.0
 40
1.096139000000112
100
AcDbArc
 50
144.783304009
 51
160.345457088
  0
ARC
  5
D4
330
1F
100
AcDbEntity
  8
0
  6
Continuous
 62
     7
370
    15
100
AcDbCircle
 10
14.901503
 20
-4.832279
 30
0.0
 40
0.7139799999999978
100
AcDbArc
 50
41.8789209994
 51
144.7338039384
  0
ARC
  5
D5
330
1F
100
AcDbEntity
  8
0
  6
Continuous
 62
     7
370
    15
100
AcDbCircle
 10
14.475041
 20
-5.21679
 30
0.0
 40
1.28818999999726
100
AcDbArc
 50
28.867173
 51
41.9501752515
  0
ARC
  5
D6
330
1F
100
AcDbEntity
  8
0
  6
Continuous
 62
     7
370
    15
100
AcDbCircle
 10
13.878665
 20
-5.546701
 30
0.0
 40
1.96973599999983
100
AcDbArc
 50
7.9457529999
 51
28.8961984366
  0
ARC
  5
D7
330
1F
100
AcDbEntity
  8
0
  6
Continuous
 62
     7
370
    15
100
AcDbCircle
 10
11.3881266282
 20
-5.8943202607
 30
0.0
 40
4.484417000000059
100
AcDbArc
 50
343.5689177934
 51
7.9457680386
  0
ARC
  5
D8
330
1F
100
AcDbEntity
  8
0
  6
Continuous
 62
     7
370
    15
100
AcDbCircle
 10
9.331472
 20
-5.290006
 30
0.0
 40
6.628016999997425
100
AcDbArc
 50
339.5019930002
 51
343.5871976207
  0
ARC
  5
D9
330
1F
100
AcDbEntity
  8
0
  6
Continuous
 62
     7
370
    15
100
AcDbCircle
 10
-0.9074030001
 20
-1.4711680003
 30
0.0
 40
17.55587399997559
100
AcDbArc
 50
337.0597790012
 51
339.5292446969
  0
ARC
  5
DA
330
1F
100
AcDbEntity
  8
0
  6
Continuous
 62
     7
370
    15
100
AcDbCircle
 10
22.7507727994
 20
-11.4837636294
 30
0.0
 40
8.133839000004278
100
AcDbArc
 50
157.0635810382
 51
161.4767248979
  0
ARC
  5
DB
330
1F
100
AcDbEntity
  8
0
  6
Continuous
 62
     7
370
    15
100
AcDbCircle
 10
26.3304544827
 20
-6.5329528203
 30
0.0
 40
11.99621500000377
100
AcDbArc
 50
202.3628603345
 51
205.9220335062
  0
ARC
  5
DC
330
1F
100
AcDbEntity
  8
0
  6
Continuous
 62
     7
370
    15
100
AcDbCircle
 10
11.2877410147
 20
-15.8946396288
 30
0.0
 40
5.502621000116294
100
AcDbArc
 50
357.7523361352
 51
8.7556672586
  0
ARC
  5
DD
330
1F
100
AcDbEntity
  8
0
  6
Continuous
 62
     7
370
    15
100
AcDbCircle
 10
13.449027
 20
-16.563141
 30
0.0
 40
3.000000000000205
100
AcDbArc
 50
291.861703
 51
303.030452
  0
ARC
  5
DE
330
1F
100
AcDbEntity
  8
0
  6
Continuous
 62
     7
370
    15
100
AcDbCircle
 10
12.7046716889
 20
-14.7079115799
 30
0.0
 40
4.99898500000119
100
AcDbArc
 50
283.9672660527
 51
291.8616809342
  0
ARC
  5
DF
330
1F
100
AcDbEntity
  8
0
  6
Continuous
 62
     7
370
    15
100
AcDbCircle
 10
13.428528563
 20
-17.6182281016
 30
0.0
 40
1.999999999998507
100
AcDbArc
 50
279.9214217894
 51
283.967285903
  0
ARC
  5
E0
330
1F
100
AcDbEntity
  8
0
  6
Continuous
 62
     7
370
    15
100
AcDbCircle
 10
11.360146
 20
-5.793035
 30
0.0
 40
14.00472399999731
100
AcDbArc
 50
273.114678
 51
279.921421
  0
ARC
  5
E1
330
1F
100
AcDbEntity
  8
0
  6
Continuous
 62
     7
370
    15
100
AcDbCircle
 10
10.4112430458
 20
30.1953607611
 30
0.0
 40
50.00167499998224
100
AcDbArc
 50
268.0585249218
 51
271.9596535955
  0
ARC
  5
E2
330
1F
100
AcDbEntity
  8
0
  6
Continuous
 62
     7
370
    15
100
AcDbCircle
 10
8.7680712721
 20
-18.2784720182
 30
0.0
 40
1.500000000028913
100
AcDbArc
 50
266.8171050865
 51
268.0585471893
  0
ARC
  5
E3
330
1F
100
AcDbEntity
  8
0
  6
Continuous
 62
     7
370
    15
100
AcDbCircle
 10
7.8240065625
 20
-15.6626968841
 30
0.0
 40
3.999999999998296
100
AcDbArc
 50
252.8951869685
 51
260.5743929505
  0
ARC
  5
E4
330
1F
100
AcDbEntity
  8
0
  6
Continuous
 62
     7
370
    15
100
AcDbCircle
 10
8.118396
 20
-14.706055
 30
0.0
 40
5.00091400000034
100
AcDbArc
 50
246.486493
 51
252.895187
  0
ARC
  5
E5
330
1F
100
AcDbEntity
  8
0
  6
Continuous
 62
     7
370
    15
100
AcDbCircle
 10
6.9211356219
 20
-17.457791256
 30
0.0
 40
1.999999999999702
100
AcDbArc
 50
240.5206066117
 51
246.4864924589
  0
ARC
  5
E6
330
1F
100
AcDbEntity
  8
0
  6
Continuous
 62
     7
370
    15
100
AcDbCircle
 10
7.78239
 20
-15.934251
 30
0.0
 40
3.750123999999989
100
AcDbArc
 50
182.562119
 51
240.520607
  0
ARC
  5
E7
330
1F
100
AcDbEntity
  8
0
  6
Continuous
 62
     7
370
    15
100
AcDbCircle
 10
10.0447971623
 20
-15.8574347396
 30
0.0
 40
6.002106000000571
100
AcDbArc
 50
160.3801800422
 51
172.3364927088
  0
ARC
  5
E8
330
1F
100
AcDbEntity
  8
0
  6
Continuous
 62
     7
370
    15
100
AcDbCircle
 10
17.6474629032
 20
-18.3323000691
 30
0.0
 40
13.99613000000073
100
AcDbArc
 50
152.0721004133
 51
161.2874836827
  0
ARC
  5
E9
330
1F
100
AcDbEntity
  8
0
  6
Continuous
 62
     7
370
    15
100
AcDbCircle
 10
-5.5080706788
 20
-6.5336820814
 30
0.0
 40
11.99603399999482
100
AcDbArc
 50
334.0814149417
 51
337.6405470784
  0
ARC
  5
EA
330
1F
100
AcDbEntity
  8
0
  6
Continuous
 62
     7
370
    15
100
AcDbCircle
 10
2.1813717869
 20
-9.5273720941
 30
0.0
 40
3.749141999999799
100
AcDbArc
 50
335.2469973082
 51
354.1883021674
  0
ARC
  5
EB
330
1F
100
AcDbEntity
  8
0
  6
Continuous
 62
     7
370
    15
100
AcDbCircle
 10
3.0459574718
 20
-9.7564459025
 30
0.0
 40
2.869238999999947
100
AcDbArc
 50
356.9920463545
 51
25.7003856769
  0
ARC
  5
EC
330
1F
100
AcDbEntity
  8
0
  6
Continuous
 62
     7
370
    15
100
AcDbCircle
 10
-7.458182322
 20
-13.5128354348
 30
0.0
 40
14.01223599998671
100
AcDbArc
 50
20.9086730227
 51
23.5595786263
  0
ARC
  5
ED
330
1F
100
AcDbEntity
  8
0
  6
Continuous
 62
     7
370
    15
100
AcDbCircle
 10
12.7683709054
 20
-4.7976121838
 30
0.0
 40
8.012401000000681
100
AcDbArc
 50
197.1256357286
 51
202.8742383385
  0
ARC
  5
EE
330
1F
100
AcDbEntity
  8
0
  6
Continuous
 62
     7
370
    15
100
AcDbCircle
 10
6.8173498906
 20
-5.5555482646
 30
0.0
 40
1.870500999999975
100
AcDbArc
 50
138.7401884715
 51
166.1264427654
  0
ARC
  5
EF
330
1F
100
AcDbEntity
  8
0
  6
Continuous
 62
     7
370
    15
100
AcDbCircle
 10
6.3952918375
 20
-5.2768285438
 30
0.0
 40
1.371148000000006
100
AcDbArc
 50
122.6206443908
 51
135.8634083845
  0
ARC
  5
F0
330
1F
100
AcDbEntity
  8
0
  6
Continuous
 62
     7
370
    15
100
AcDbCircle
 10
6.6327320967
 20
-5.7150497966
 30
0.0
 40
1.868592999999995
100
AcDbArc
 50
83.8991773089
 51
121.5091254718
  0
ARC
  5
F1
330
1F
100
AcDbEntity
  8
0
  6
Continuous
 62
     7
370
    15
100
AcDbCircle
 10
6.5579738007
 20
-7.0963599274
 30
0.0
 40
3.250833000000055
100
AcDbArc
 50
69.9757372618
 51
85.1765363974
  0
ARC
  5
F2
330
1F
100
AcDbEntity
  8
0
  6
Continuous
 62
     7
370
    15
100
AcDbCircle
 10
5.9628476876
 20
-8.7448044532
 30
0.0
 40
5.003409999999928
100
AcDbArc
 50
56.3659077182
 51
70.036518381
  0
ARC
  5
F3
330
1F
100
AcDbEntity
  8
0
  6
Continuous
 62
     7
370
    15
100
AcDbCircle
 10
8.9445018367
 20
-4.2657536809
 30
0.0
 40
0.377314093322737
100
AcDbArc
 50
236.1210343625
 51
339.3598344917
  0
ARC
  5
F4
330
1F
100
AcDbEntity
  8
0
  6
Continuous
 62
     7
370
    15
100
AcDbCircle
 10
17.7800789999
 20
-9.7572469982
 30
0.0
 40
2.872740999999947
100
AcDbArc
 50
162.6322926711
 51
182.9882830355
  0
ARC
  5
F5
330
1F
100
AcDbEntity
  8
0
  6
Continuous
 62
     7
370
    15
100
AcDbCircle
 10
18.6431509523
 20
-9.5268148966
 30
0.0
 40
3.751223000000106
100
AcDbArc
 50
185.8170164952
 51
204.7477087386
  0
ARC
  5
F6
330
1F
100
AcDbEntity
  8
0
  6
Continuous
 62
     7
370
    15
100
AcDbCircle
 10
9.46234
 20
-5.793702
 30
0.0
 40
14.00405899999937
100
AcDbArc
 50
260.574393
 51
266.817103
  0
ARC
  5
F7
330
1F
100
AcDbEntity
  8
0
  6
Continuous
 62
     7
370
    15
100
AcDbCircle
 10
11.263514
 20
-6.709039
 30
0.0
 40
0.2500000000000027
100
AcDbArc
 50
270.0
 51
0.854434
  0
ARC
  5
F8
330
1F
100
AcDbEntity
  8
0
  6
Continuous
 62
     7
370
    15
100
AcDbCircle
 10
10.7777871375
 20
-15.8576520197
 30
0.0
 40
6.00208799999986
100
AcDbArc
 50
7.6656198218
 51
19.6220829563
  0
ARC
  5
F9
330
1F
100
AcDbEntity
  8
0
  6
Continuous
 62
     7
370
    15
100
AcDbCircle
 10
10.8540911648
 20
-5.3691389317
 30
0.0
 40
6.014727000000253
100
AcDbArc
 50
190.0318869873
 51
197.2924156146
  0
ARC
  5
FA
330
1F
100
AcDbEntity
  8
0
  6
Continuous
 62
     7
370
    15
100
AcDbCircle
 10
13.0401459889
 20
-15.9342512369
 30
0.0
 40
3.75012400000002
100
AcDbArc
 50
303.0304500828
 51
357.3070196238
  0
ARC
  5
FB
330
1F
100
AcDbEntity
  8
0
  6
Continuous
 62
     7
370
    15
100
AcDbCircle
 10
9.5301198121
 20
-15.8947087056
 30
0.0
 40
5.498009999999843
100
AcDbArc
 50
171.2361997501
 51
182.1595959068
  0
ARC
  5
FC
330
1F
100
AcDbEntity
  8
0
  6
Continuous
 62
     7
370
    15
100
AcDbCircle
 10
8.3998137655
 20
-5.9456928982
 30
0.0
 40
3.500349000000014
100
AcDbArc
 50
166.1375762959
 51
187.7361812593
  0
ARC
  5
FD
330
1F
100
AcDbEntity
  8
0
  6
Continuous
 62
     7
370
    15
100
AcDbCircle
 10
3.1689335318
 20
-18.3346306172
 30
0.0
 40
14.00264699999936
100
AcDbArc
 50
18.7135520262
 51
27.9245606434
  0
ENDSEC
  0
SECTION
  2
OBJECTS
  0
DICTIONARY
  5
C
330
0
100
AcDbDictionary
281
     1
  3
ACAD_GROUP
350
D
  3
ACAD_LAYOUT
350
1A
  3
ACAD_MLINESTYLE
350
17
  3
ACAD_PLOTSETTINGS
350
19
  3
ACAD_PLOTSTYLENAME
350
E
  0
DICTIONARY
  5
D
102
{ACAD_REACTORS
330
C
102
}
330
C
100
AcDbDictionary
281
     1
  0
DICTIONARY
  5
1A
102
{ACAD_REACTORS
330
C
102
}
330
C
100
AcDbDictionary
281
     1
  3
Layout1
350
1E
  3
Layout2
350
26
  3
Model
350
22
  0
DICTIONARY
  5
17
102
{ACAD_REACTORS
330
C
102
}
330
C
100
AcDbDictionary
281
     1
  3
Standard
350
18
  0
DICTIONARY
  5
19
102
{ACAD_REACTORS
330
C
102
}
330
C
100
AcDbDictionary
281
     1
  0
ACDBDICTIONARYWDFLT
  5
E
102
{ACAD_REACTORS
330
C
102
}
330
C
100
AcDbDictionary
281
     1
  3
Normal
350
F
100
AcDbDictionaryWithDefault
340
F
  0
LAYOUT
  5
1E
102
{ACAD_REACTORS
330
1A
102
}
330
1A
100
AcDbPlotSettings
  1

  2
none_device
  4

  6

 40
0.0
 41
0.0
 42
0.0
 43
0.0
 44
0.0
 45
0.0
 46
0.0
 47
0.0
 48
0.0
 49
0.0
140
0.0
141
0.0
142
1.0
143
1.0
 70
   688
 72
     0
 73
     0
 74
     5
  7

 75
    16
147
1.0
148
0.0
149
0.0
100
AcDbLayout
  1
Layout1
 70
     1
 71
     1
 10
0.0
 20
0.0
 11
12.0
 21
9.0
 12
0.0
 22
0.0
 32
0.0
 14
1.0000000000E+20
 24
1.0000000000E+20
 34
1.0000000000E+20
 15
-1.0000000000E+20
 25
-1.0000000000E+20
 35
-1.0000000000E+20
146
0.0
 13
0.0
 23
0.0
 33
0.0
 16
1.0
 26
0.0
 36
0.0
 17
0.0
 27
1.0
 37
0.0
 76
     0
330
1B
  0
LAYOUT
  5
26
102
{ACAD_REACTORS
330
1A
102
}
330
1A
100
AcDbPlotSettings
  1

  2
none_device
  4

  6

 40
0.0
 41
0.0
 42
0.0
 43
0.0
 44
0.0
 45
0.0
 46
0.0
 47
0.0
 48
0.0
 49
0.0
140
0.0
141
0.0
142
1.0
143
1.0
 70
   688
 72
     0
 73
     0
 74
     5
  7

 75
    16
147
1.0
148
0.0
149
0.0
100
AcDbLayout
  1
Layout2
 70
     1
 71
     2
 10
0.0
 20
0.0
 11
0.0
 21
0.0
 12
0.0
 22
0.0
 32
0.0
 14
0.0
 24
0.0
 34
0.0
 15
0.0
 25
0.0
 35
0.0
146
0.0
 13
0.0
 23
0.0
 33
0.0
 16
1.0
 26
0.0
 36
0.0
 17
0.0
 27
1.0
 37
0.0
 76
     0
330
23
  0
LAYOUT
  5
22
102
{ACAD_REACTORS
330
1A
102
}
330
1A
100
AcDbPlotSettings
  1

  2
none_device
  4
ANSI_A_(11.00_x_8.50_Inches)
  6

 40
6.35
 41
19.05
 42
6.35000508
 43
19.05000254
 44
279.4
 45
215.9
 46
-6.0815722409
 47
247.283836185
 48
0.0
 49
0.0
140
0.0
141
0.0
142
0.5272603487
143
1.0
 70
  1696
 72
     0
 73
     0
 74
     0
  7

 75
     0
147
0.5913241897
148
0.0
149
0.0
100
AcDbLayout
  1
Model
 70
     1
 71
     0
 10
0.0
 20
0.0
 11
12.0
 21
9.0
 12
0.0
 22
0.0
 32
0.0
 14
4.0321098121
 24
-19.8063142388
 34
0.0
 15
16.7903620148
 25
-3.8464567966
 35
0.0
146
0.0
 13
0.0
 23
0.0
 33
0.0
 16
1.0
 26
0.0
 36
0.0
 17
0.0
 27
1.0
 37
0.0
 76
     0
330
1F
331
29
  0
MLINESTYLE
  5
18
102
{ACAD_REACTORS
330
17
102
}
330
17
100
AcDbMlineStyle
  2
Standard
 70
     0
  3

 62
   256
 51
90.0
 52
90.0
 71
     2
 49
0.5
 62
   256
  6
BYLAYER
 49
-0.5
 62
   256
  6
BYLAYER
  0
ACDBPLACEHOLDER
  5
F
102
{ACAD_REACTORS
330
E
102
}
330
E
  0
ENDSEC
  0
EOF
